<svg width="77" height="75" viewBox="0 0 77 75" fill="none" xmlns="http://www.w3.org/2000/svg">
<path d="M18.8911 2.47958C10.9819 6.78749 11.2552 18.5527 12.3805 23.8968C7.31668 25.6101 -2.15985 32.0475 0.444382 44.0901C3.04862 56.1327 12.8627 58.5722 17.4442 58.2866C17.4442 64.1611 24.1663 75 33.5872 75C43.008 75 49.8391 69.0287 51.0429 62.8185C56.2674 65.3069 67.5517 67.3675 74.1105 56.6956C80.6693 46.0238 74.564 35.4272 70.5451 32.2452C72.1125 26.4932 74.3998 18.879 65.9119 11.536C59.4014 5.90357 51.5646 7.86446 45.4157 9.45546C39.6285 2.47958 29.9832 -3.56201 18.8911 2.47958Z" fill="#F4D5C0"/>
</svg>
