<svg width="102" height="100" viewBox="0 0 102 100" fill="none" xmlns="http://www.w3.org/2000/svg">
<path d="M64.6945 1.76754C49.2899 -4.34141 34.6808 6.82198 31.4987 13.44C25.3875 11.3673 11.2124 10.7346 3.40156 24.7853C-4.40923 38.8359 3.03995 47.5121 7.74088 50.0938C0.472519 61.5482 0.233856 78.326 10.5614 85.2204C24.6643 94.6351 35.1871 90.8567 40.9367 88.9295C46.1077 94.7839 59.7043 102.893 69.4678 98.9656C80.7928 94.4103 82.0518 83.9477 81.5094 80.0933C89.5371 76.7115 97.9988 72.6752 101.145 59.4755C105.568 40.9184 91.8153 34.276 83.2451 30.7851C82.2688 19.6581 80.0991 7.87649 64.6945 1.76754Z" fill="#F4D5C0"/>
</svg>
