<svg width="1253" height="1217" viewBox="0 0 1253 1217" fill="none" xmlns="http://www.w3.org/2000/svg">
<mask id="path-1-outside-1_507_1135" maskUnits="userSpaceOnUse" x="0" y="0" width="1253" height="1217" fill="black">
<rect fill="white" width="1253" height="1217"/>
<path fill-rule="evenodd" clip-rule="evenodd" d="M1095.9 763.483C1125.65 807.795 1143 861.121 1143 918.5C1143 1072.31 1018.31 1197 864.5 1197C766.707 1197 680.686 1146.6 631 1070.35C581.314 1146.6 495.293 1197 397.5 1197C243.689 1197 119 1072.31 119 918.5C119 862.412 135.58 810.196 164.107 766.487C78.1921 719.062 20 627.577 20 522.5C20 368.689 144.689 244 298.5 244C317.945 244 336.925 245.993 355.246 249.785C378.284 119.201 492.307 20 629.5 20C766.634 20 880.619 119.116 903.724 249.618C920.188 246.585 937.159 245 954.5 245C1108.31 245 1233 369.689 1233 523.5C1233 625.693 1177.96 715.029 1095.9 763.483Z"/>
</mask>
<path fill-rule="evenodd" clip-rule="evenodd" d="M1095.9 763.483C1125.65 807.795 1143 861.121 1143 918.5C1143 1072.31 1018.31 1197 864.5 1197C766.707 1197 680.686 1146.6 631 1070.35C581.314 1146.6 495.293 1197 397.5 1197C243.689 1197 119 1072.31 119 918.5C119 862.412 135.58 810.196 164.107 766.487C78.1921 719.062 20 627.577 20 522.5C20 368.689 144.689 244 298.5 244C317.945 244 336.925 245.993 355.246 249.785C378.284 119.201 492.307 20 629.5 20C766.634 20 880.619 119.116 903.724 249.618C920.188 246.585 937.159 245 954.5 245C1108.31 245 1233 369.689 1233 523.5C1233 625.693 1177.96 715.029 1095.9 763.483Z" fill="white" fill-opacity="0.3"/>
<path d="M1095.9 763.483L1085.73 746.261L1067.49 757.035L1079.3 774.629L1095.9 763.483ZM631 1070.35L647.756 1059.43L631 1033.72L614.244 1059.43L631 1070.35ZM164.107 766.487L180.856 777.418L192.625 759.384L173.772 748.977L164.107 766.487ZM355.246 249.785L351.192 269.37L371.363 273.546L374.942 253.26L355.246 249.785ZM903.724 249.618L884.031 253.105L887.542 272.935L907.348 269.287L903.724 249.618ZM1079.3 774.629C1106.9 815.748 1123 865.213 1123 918.5H1163C1163 857.029 1144.4 799.841 1112.51 752.336L1079.3 774.629ZM1123 918.5C1123 1061.27 1007.27 1177 864.5 1177V1217C1029.36 1217 1163 1083.36 1163 918.5H1123ZM864.5 1177C773.75 1177 693.907 1130.25 647.756 1059.43L614.244 1081.27C667.465 1162.94 759.664 1217 864.5 1217V1177ZM614.244 1059.43C568.093 1130.25 488.25 1177 397.5 1177V1217C502.337 1217 594.535 1162.94 647.756 1081.27L614.244 1059.43ZM397.5 1177C254.734 1177 139 1061.27 139 918.5H99C99 1083.36 232.643 1217 397.5 1217V1177ZM139 918.5C139 866.41 154.386 817.975 180.856 777.418L147.359 755.556C116.775 802.417 99 858.413 99 918.5H139ZM173.772 748.977C93.9755 704.93 40 620.004 40 522.5H0C0 635.149 62.4087 733.194 154.442 783.996L173.772 748.977ZM40 522.5C40 379.734 155.734 264 298.5 264V224C133.643 224 0 357.643 0 522.5H40ZM298.5 264C316.575 264 334.197 265.852 351.192 269.37L359.3 230.201C339.653 226.134 319.315 224 298.5 224V264ZM374.942 253.26C396.323 132.067 502.18 40 629.5 40V0C482.434 0 360.245 106.335 335.55 246.311L374.942 253.26ZM629.5 40C756.765 40 862.587 131.988 884.031 253.105L923.418 246.131C898.651 106.244 776.503 0 629.5 0V40ZM907.348 269.287C922.622 266.473 938.38 265 954.5 265V225C935.938 225 917.754 226.697 900.101 229.949L907.348 269.287ZM954.5 265C1097.27 265 1213 380.734 1213 523.5H1253C1253 358.643 1119.36 225 954.5 225V265ZM1213 523.5C1213 618.329 1161.95 701.257 1085.73 746.261L1106.07 780.704C1193.97 728.802 1253 633.056 1253 523.5H1213Z" fill="#6E8DAC" mask="url(#path-1-outside-1_507_1135)"/>
<mask id="path-3-inside-2_507_1135" fill="white">
<path fill-rule="evenodd" clip-rule="evenodd" d="M1059.31 750.982C1086.97 791.917 1103.12 841.267 1103.12 894.39C1103.12 1036.03 988.303 1150.85 846.664 1150.85C756.611 1150.85 677.398 1104.43 631.644 1034.22C585.89 1104.43 506.677 1150.85 416.624 1150.85C274.985 1150.85 160.165 1036.03 160.165 894.39C160.165 842.741 175.433 794.658 201.702 754.408C122.587 710.736 69 626.492 69 529.731C69 388.093 183.821 273.272 325.459 273.272C343.365 273.272 360.843 275.107 377.714 278.6C398.928 158.35 503.927 67 630.263 67C756.231 67 860.988 157.82 882.625 277.554C897.835 274.742 913.516 273.272 929.541 273.272C1071.18 273.272 1186 388.093 1186 529.731C1186 624.02 1135.12 706.424 1059.31 750.982Z"/>
</mask>
<path d="M1059.31 750.982L1056.78 746.671L1052.19 749.37L1055.17 753.781L1059.31 750.982ZM631.644 1034.22L635.833 1031.49L631.644 1025.06L627.455 1031.49L631.644 1034.22ZM201.702 754.408L205.889 757.141L208.832 752.632L204.118 750.03L201.702 754.408ZM377.714 278.6L376.7 283.496L381.743 284.54L382.638 279.468L377.714 278.6ZM882.625 277.554L877.704 278.443L878.597 283.383L883.534 282.47L882.625 277.554ZM1055.17 753.781C1082.29 793.916 1098.12 842.296 1098.12 894.39H1108.12C1108.12 840.239 1091.66 789.918 1063.45 748.182L1055.17 753.781ZM1098.12 894.39C1098.12 1033.27 985.541 1145.85 846.664 1145.85V1155.85C991.064 1155.85 1108.12 1038.79 1108.12 894.39H1098.12ZM846.664 1145.85C758.371 1145.85 680.703 1100.35 635.833 1031.49L627.455 1036.95C674.092 1108.52 754.85 1155.85 846.664 1155.85V1145.85ZM627.455 1031.49C582.585 1100.35 504.917 1145.85 416.624 1145.85V1155.85C508.438 1155.85 589.196 1108.52 635.833 1036.95L627.455 1031.49ZM416.624 1145.85C277.747 1145.85 165.165 1033.27 165.165 894.39H155.165C155.165 1038.79 272.224 1155.85 416.624 1155.85V1145.85ZM165.165 894.39C165.165 843.741 180.134 796.602 205.889 757.141L197.515 751.675C170.732 792.713 155.165 841.741 155.165 894.39H165.165ZM204.118 750.03C126.532 707.203 74 624.598 74 529.731H64C64 628.385 118.641 714.269 199.286 758.785L204.118 750.03ZM74 529.731C74 390.854 186.582 278.272 325.459 278.272V268.272C181.059 268.272 64 385.331 64 529.731H74ZM325.459 278.272C343.023 278.272 360.161 280.072 376.7 283.496L378.727 273.703C361.525 270.142 343.708 268.272 325.459 268.272V278.272ZM382.638 279.468C403.438 161.566 506.396 72 630.263 72V62C501.459 62 394.418 155.133 372.79 277.731L382.638 279.468ZM630.263 72C753.77 72 856.49 161.047 877.704 278.443L887.545 276.665C865.486 154.594 758.693 62 630.263 62V72ZM883.534 282.47C898.446 279.714 913.823 278.272 929.541 278.272V268.272C913.21 268.272 897.225 269.77 881.716 272.637L883.534 282.47ZM929.541 278.272C1068.42 278.272 1181 390.854 1181 529.731H1191C1191 385.331 1073.94 268.272 929.541 268.272V278.272ZM1181 529.731C1181 622.175 1131.12 702.974 1056.78 746.671L1061.84 755.292C1139.11 709.873 1191 625.864 1191 529.731H1181Z" fill="#6E8DAC" mask="url(#path-3-inside-2_507_1135)"/>
<path fill-rule="evenodd" clip-rule="evenodd" d="M391.003 650.622C391.588 645.223 392.076 640.724 393 637C409.5 570.5 451.5 505.9 515.5 461.5C595.5 406 699.661 429.22 731.5 441.5C766.5 455 813.078 492.771 850 547C862.267 565.017 870.54 584.183 879.723 605.46C882.518 611.936 885.398 618.607 888.5 625.5C890.37 629.657 892.418 634.219 894.58 639.035L894.606 639.093C896.13 642.489 897.711 646.01 899.326 649.605C886.078 638.61 869.061 632 850.5 632C808.25 632 774 666.25 774 708.5C774 750.75 808.25 785 850.5 785C860.682 785 870.4 783.011 879.286 779.399C838.779 813.436 767.383 847.861 647 852.5C501.348 858.114 431.11 822.878 396.367 790.012C408.245 797.601 422.359 802 437.5 802C479.75 802 514 767.75 514 725.5C514 683.25 479.75 649 437.5 649C419.083 649 402.186 655.508 388.983 666.35C389.943 660.411 390.508 655.194 391.003 650.622ZM362.21 739.126C362.14 739.25 362.07 739.375 362 739.5C362.141 739.766 362.29 740.06 362.447 740.382C362.364 739.964 362.285 739.546 362.21 739.126ZM593 661.516C618.6 641.916 655 648.016 677.5 661.516C661.833 664.516 638 674.016 634 681.516C625.167 674.183 614.5 665.5 593 661.516ZM548 624.5C548 633.06 541.06 640 532.5 640C523.94 640 517 633.06 517 624.5C517 615.94 523.94 609 532.5 609C541.06 609 548 615.94 548 624.5ZM736.5 640C745.06 640 752 633.06 752 624.5C752 615.94 745.06 609 736.5 609C727.94 609 721 615.94 721 624.5C721 633.06 727.94 640 736.5 640Z" fill="#6E8DAC"/>
<path d="M785 239C828 277 831.3 323.8 840.5 355C883 350 947.5 347.5 994.5 373.5" stroke="#6E8DAC" stroke-width="5"/>
<path d="M1068.59 640C1050.64 694.504 1008.93 715.999 983.895 736.762C1005.26 773.842 1033 832.124 1027.65 885.57" stroke="#6E8DAC" stroke-width="5"/>
<path d="M187.651 640C205.605 694.504 247.307 715.999 272.347 736.762C250.985 773.842 223.242 832.124 228.591 885.57" stroke="#6E8DAC" stroke-width="5"/>
<path d="M521 1042.74C576 1017.74 603.161 983.822 633 957.745C662.767 988.488 687 1022.24 743 1042.74" stroke="#6E8DAC" stroke-width="5"/>
<path d="M466.5 239C423.5 277 420.2 323.8 411 355C368.5 350 304 347.5 257 373.5" stroke="#6E8DAC" stroke-width="5"/>
<line x1="636.545" y1="223.457" x2="636.955" y2="155.455" stroke="#6E8DAC" stroke-width="15" stroke-linecap="round"/>
<line x1="701.058" y1="224.153" x2="722.129" y2="174.942" stroke="#6E8DAC" stroke-width="15" stroke-linecap="round"/>
<line x1="561.469" y1="226.345" x2="544.346" y2="176.531" stroke="#6E8DAC" stroke-width="15" stroke-linecap="round"/>
<path d="M275.656 444.062C276.906 445.521 277.531 447.135 277.531 448.906C277.531 449.323 277.479 449.792 277.375 450.312C276.958 452.708 275.656 454.531 273.469 455.781L272.531 456.406C270.969 457.344 269.302 457.812 267.531 457.812C266.802 457.812 266.073 457.708 265.344 457.5C262.844 456.979 260.76 455.729 259.094 453.75C253.885 447.5 247.479 440.781 239.875 433.594C238.521 432.24 237.844 430.677 237.844 428.906C237.844 428.698 237.844 428.438 237.844 428.125C238.052 425.938 239.094 424.323 240.969 423.281C242.948 422.135 245.031 421.562 247.219 421.562C247.635 421.562 248.104 421.615 248.625 421.719C251.229 421.927 253.573 422.917 255.656 424.688C263.573 431.667 270.24 438.125 275.656 444.062ZM162.375 427.5C164.146 425.312 166.281 423.75 168.781 422.812C170.135 422.396 171.49 422.188 172.844 422.188C174.094 422.188 175.292 422.344 176.438 422.656L177.219 422.969C179.51 423.594 181.021 425 181.75 427.188C182.062 428.021 182.219 428.802 182.219 429.531C182.219 430.885 181.802 432.135 180.969 433.281C174.406 442.344 166.802 450.521 158.156 457.812C156.177 459.375 153.938 460.156 151.438 460.156C151.333 460.156 151.229 460.156 151.125 460.156C148.417 460.052 145.969 459.167 143.781 457.5C143.469 457.188 143.104 456.875 142.688 456.562C141.021 455.312 140.188 453.646 140.188 451.562C140.188 449.375 141.073 447.604 142.844 446.25C150.344 440.833 156.854 434.583 162.375 427.5ZM185.5 535.781C184.667 535.781 184.25 536.146 184.25 536.875V542.812C184.25 543.542 184.667 543.906 185.5 543.906H210.969C211.802 543.906 212.219 543.542 212.219 542.812V536.875C212.219 536.146 211.802 535.781 210.969 535.781H185.5ZM210.969 503.281C211.802 503.281 212.219 502.865 212.219 502.031V496.25C212.219 495.521 211.802 495.156 210.969 495.156H185.5C184.667 495.156 184.25 495.521 184.25 496.25V502.031C184.25 502.865 184.667 503.281 185.5 503.281H210.969ZM210.969 523.438C211.802 523.438 212.219 523.073 212.219 522.344V516.562C212.219 515.833 211.802 515.469 210.969 515.469H185.5C184.667 515.469 184.25 515.833 184.25 516.562V522.344C184.25 523.073 184.667 523.438 185.5 523.438H210.969ZM231.906 535.781C231.073 535.781 230.656 536.146 230.656 536.875V542.812C230.656 543.542 231.073 543.906 231.906 543.906H272.219C274.198 543.906 275.865 544.635 277.219 546.094C278.677 547.448 279.406 549.115 279.406 551.094C279.406 553.073 278.677 554.74 277.219 556.094C275.865 557.552 274.198 558.281 272.219 558.281H184.875C184.458 558.281 184.25 558.49 184.25 558.906C184.25 560.26 183.781 561.406 182.844 562.344C181.906 563.281 180.812 563.75 179.562 563.75H174.875C172.271 563.75 170.083 562.865 168.312 561.094C166.542 559.323 165.656 557.135 165.656 554.531V496.875C165.656 496.667 165.5 496.458 165.188 496.25C164.979 496.042 164.719 495.99 164.406 496.094C160.865 497.24 157.062 498.438 153 499.688C151.958 500 150.865 500.156 149.719 500.156C148.26 500.156 146.802 499.844 145.344 499.219C142.844 498.281 140.865 496.667 139.406 494.375C139.094 493.958 138.833 493.594 138.625 493.281C137.896 492.135 137.531 490.99 137.531 489.844C137.531 489.115 137.688 488.385 138 487.656C138.729 485.573 140.083 484.323 142.062 483.906C161.646 479.323 179.25 473.177 194.875 465.469C195.083 465.365 195.135 465.26 195.031 465.156C195.031 465.052 194.979 465 194.875 465C192.583 465.104 189.771 465.156 186.438 465.156C186.333 465.156 186.281 465.156 186.281 465.156C183.885 465.156 181.75 464.427 179.875 462.969C177.792 461.406 176.333 459.427 175.5 457.031C175.188 456.406 175.031 455.729 175.031 455C175.031 453.958 175.344 452.969 175.969 452.031C177.01 450.469 178.469 449.688 180.344 449.688C180.344 449.688 180.396 449.688 180.5 449.688C183.938 449.792 186.802 449.844 189.094 449.844C191.385 449.844 193.208 449.792 194.562 449.688C196.021 449.583 197.01 449.375 197.531 449.062C198.156 448.646 198.469 447.917 198.469 446.875V423.906C198.469 421.302 199.354 419.115 201.125 417.344C202.896 415.573 205.083 414.688 207.688 414.688H208C210.604 414.688 212.792 415.573 214.562 417.344C216.333 419.115 217.219 421.302 217.219 423.906V447.656C217.219 449.323 217.219 450.521 217.219 451.25C217.115 451.458 217.167 451.615 217.375 451.719C217.583 451.823 217.74 451.823 217.844 451.719C221.802 448.802 225.292 445.938 228.312 443.125C230.292 441.25 232.635 440.104 235.344 439.688C236.073 439.583 236.75 439.531 237.375 439.531C239.25 439.531 241.073 439.948 242.844 440.781L243.156 440.938C245.24 441.979 246.49 443.646 246.906 445.938C247.01 446.354 247.062 446.771 247.062 447.188C247.062 448.958 246.385 450.521 245.031 451.875C234.198 462.188 220.344 471.615 203.469 480.156C203.365 480.26 203.312 480.417 203.312 480.625C203.312 480.729 203.417 480.781 203.625 480.781H221.75C222.479 480.781 223.052 480.417 223.469 479.688C223.99 478.438 224.562 477.24 225.188 476.094C226.229 473.594 227.896 471.667 230.188 470.312C232.062 469.167 233.99 468.594 235.969 468.594C236.49 468.594 237.01 468.646 237.531 468.75L240.969 469.219C243.156 469.635 244.719 470.833 245.656 472.812C246.073 473.646 246.281 474.531 246.281 475.469C246.281 476.51 245.969 477.552 245.344 478.594C245.031 479.01 244.771 479.375 244.562 479.688C244.458 479.896 244.458 480.156 244.562 480.469C244.667 480.677 244.875 480.781 245.188 480.781H267.219C269.198 480.781 270.865 481.51 272.219 482.969C273.677 484.323 274.406 485.99 274.406 487.969C274.406 489.948 273.677 491.667 272.219 493.125C270.865 494.479 269.198 495.156 267.219 495.156H231.906C231.073 495.156 230.656 495.521 230.656 496.25V502.031C230.656 502.865 231.073 503.281 231.906 503.281H261.906C263.573 503.281 264.979 503.906 266.125 505.156C267.375 506.302 268 507.708 268 509.375C268 511.042 267.375 512.5 266.125 513.75C264.979 514.896 263.573 515.469 261.906 515.469H231.906C231.073 515.469 230.656 515.833 230.656 516.562V522.344C230.656 523.073 231.073 523.438 231.906 523.438H262.062C263.729 523.438 265.135 524.062 266.281 525.312C267.531 526.458 268.156 527.917 268.156 529.688C268.156 531.354 267.531 532.812 266.281 534.062C265.135 535.208 263.729 535.781 262.062 535.781H231.906Z" fill="#6E8DAC"/>
<path d="M1058.91 526.562C1058.8 527.396 1059.17 527.812 1060 527.812H1071.72C1072.45 527.812 1072.86 527.396 1072.97 526.562C1073.39 523.021 1073.85 517.969 1074.38 511.406C1074.38 510.573 1074.01 510.156 1073.28 510.156H1061.72C1060.89 510.156 1060.47 510.521 1060.47 511.25C1060.36 512.083 1060.1 514.427 1059.69 518.281C1059.38 522.031 1059.11 524.792 1058.91 526.562ZM1043.75 518.281C1044.06 514.427 1044.27 512.135 1044.38 511.406C1044.48 510.573 1044.11 510.156 1043.28 510.156H1032.66C1031.93 510.156 1031.51 510.573 1031.41 511.406C1030.78 517.135 1030.26 522.188 1029.84 526.562C1029.74 527.396 1030.05 527.812 1030.78 527.812H1041.56C1042.4 527.812 1042.86 527.396 1042.97 526.562C1043.18 524.792 1043.44 522.031 1043.75 518.281ZM1006.41 498.594C1006.41 496.927 1006.98 495.521 1008.12 494.375C1009.27 493.229 1010.62 492.656 1012.19 492.656H1015.31C1016.04 492.656 1016.41 492.292 1016.41 491.562C1017.45 481.146 1018.18 473.281 1018.59 467.969C1018.49 467.969 1018.44 467.969 1018.44 467.969C1017.6 468.906 1016.67 468.958 1015.62 468.125C1012.5 465.729 1008.96 463.333 1005 460.938C1004.69 460.833 1004.53 460.938 1004.53 461.25C1004.53 462.292 1004.17 463.177 1003.44 463.906C1002.71 464.635 1001.77 465 1000.62 465H990.312C989.583 465 989.219 465.417 989.219 466.25V471.719C989.219 472.448 989.427 473.125 989.844 473.75C994.115 479.792 999.531 488.073 1006.09 498.594C1006.09 498.698 1006.15 498.75 1006.25 498.75C1006.35 498.646 1006.41 498.594 1006.41 498.594ZM1046.72 477.031C1046.72 476.302 1046.35 475.938 1045.62 475.938H1035.94C1035.1 475.938 1034.69 476.302 1034.69 477.031C1034.06 483.802 1033.59 488.646 1033.28 491.562C1033.18 492.292 1033.54 492.656 1034.38 492.656H1044.69C1045.42 492.656 1045.83 492.292 1045.94 491.562C1046.25 486.771 1046.51 481.927 1046.72 477.031ZM1061.88 491.562C1061.88 492.292 1062.24 492.656 1062.97 492.656H1074.22C1075.05 492.656 1075.47 492.292 1075.47 491.562C1075.78 486.042 1075.99 481.198 1076.09 477.031C1076.2 476.302 1075.83 475.938 1075 475.938H1064.06C1063.33 475.938 1062.92 476.302 1062.81 477.031C1062.5 483.594 1062.19 488.438 1061.88 491.562ZM1100.78 501.719C1100.78 504.01 1099.95 505.99 1098.28 507.656C1096.61 509.323 1094.64 510.156 1092.34 510.156C1091.61 510.156 1091.2 510.521 1091.09 511.25C1090.68 517.188 1090.26 522.344 1089.84 526.719C1089.84 527.448 1090.21 527.812 1090.94 527.812H1091.25C1093.44 527.812 1095.31 528.594 1096.88 530.156C1098.44 531.719 1099.22 533.594 1099.22 535.781C1099.22 537.969 1098.44 539.844 1096.88 541.406C1095.31 542.969 1093.44 543.75 1091.25 543.75H1088.91C1088.07 543.75 1087.6 544.167 1087.5 545C1086.35 550.417 1084.95 554.271 1083.28 556.562C1080.57 560.417 1076.51 562.708 1071.09 563.438C1069.01 563.854 1066.04 564.062 1062.19 564.062C1061.56 564.062 1060.89 564.062 1060.16 564.062C1058.18 563.958 1056.41 563.229 1054.84 561.875C1053.39 560.521 1052.29 558.854 1051.56 556.875C1051.15 555.312 1051.35 553.854 1052.19 552.5C1053.12 551.25 1054.38 550.677 1055.94 550.781C1057.6 550.885 1059.06 550.938 1060.31 550.938C1061.35 550.938 1062.24 550.885 1062.97 550.781C1063.07 550.781 1063.23 550.781 1063.44 550.781C1065.42 550.781 1066.98 549.948 1068.12 548.281C1068.85 547.24 1069.43 546.094 1069.84 544.844C1069.95 544.635 1069.9 544.427 1069.69 544.219C1069.48 543.906 1069.22 543.75 1068.91 543.75H1028.28C1027.86 543.75 1027.66 543.958 1027.66 544.375C1027.45 545.729 1026.77 546.875 1025.62 547.812C1024.58 548.646 1023.39 549.01 1022.03 548.906L1017.97 548.594C1015.68 548.49 1013.75 547.5 1012.19 545.625C1011.04 544.167 1010.47 542.5 1010.47 540.625C1010.47 540.208 1010.52 539.74 1010.62 539.219C1011.98 530.052 1013.23 520.677 1014.38 511.094C1014.38 510.469 1014.11 510.156 1013.59 510.156H1011.72C1010.26 510.156 1009.01 509.635 1007.97 508.594C1006.93 507.552 1006.41 506.302 1006.41 504.844C1006.41 504.844 1006.35 504.844 1006.25 504.844C1006.15 504.74 1006.09 504.74 1006.09 504.844L1003.59 508.125C1002.55 509.583 1001.2 510.312 999.531 510.312C999.323 510.312 999.115 510.312 998.906 510.312C996.823 510.104 995.365 509.062 994.531 507.188C993.073 504.062 991.458 500.677 989.688 497.031C989.583 496.823 989.479 496.771 989.375 496.875C989.271 496.875 989.219 496.927 989.219 497.031V555.156C989.219 557.552 988.333 559.583 986.562 561.25C984.896 562.917 982.865 563.75 980.469 563.75C978.073 563.75 976.042 562.917 974.375 561.25C972.708 559.583 971.875 557.552 971.875 555.156V505.156C971.875 505.052 971.823 505 971.719 505C971.615 504.896 971.562 504.896 971.562 505C968.542 513.646 965.365 521.146 962.031 527.5C961.198 529.062 959.948 529.844 958.281 529.844C958.177 529.844 958.021 529.844 957.812 529.844C955.938 529.635 954.531 528.698 953.594 527.031C953.594 526.927 953.542 526.823 953.438 526.719C952.188 524.115 951.562 521.562 951.562 519.062C951.562 516.354 952.344 513.594 953.906 510.781C961.094 497.76 966.51 482.865 970.156 466.094C970.365 465.365 970.052 465 969.219 465H961.406C959.01 465 956.927 464.167 955.156 462.5C953.49 460.729 952.656 458.646 952.656 456.25C952.656 453.854 953.49 451.823 955.156 450.156C956.927 448.385 959.01 447.5 961.406 447.5H970.781C971.51 447.5 971.875 447.083 971.875 446.25V423.125C971.875 420.729 972.708 418.698 974.375 417.031C976.042 415.365 978.073 414.531 980.469 414.531C982.865 414.531 984.896 415.365 986.562 417.031C988.333 418.698 989.219 420.729 989.219 423.125V446.25C989.219 447.083 989.583 447.5 990.312 447.5H997.812C999.688 447.5 1001.25 448.177 1002.5 449.531C1003.85 450.781 1004.53 452.292 1004.53 454.062C1004.53 454.167 1004.58 454.271 1004.69 454.375C1004.9 454.375 1005.05 454.375 1005.16 454.375C1012.34 445.938 1018.28 435.365 1022.97 422.656C1023.91 420.156 1025.47 418.229 1027.66 416.875C1029.22 415.938 1030.89 415.469 1032.66 415.469C1033.39 415.469 1034.11 415.573 1034.84 415.781L1035.31 415.938C1037.81 416.458 1039.69 417.76 1040.94 419.844C1041.67 421.198 1042.03 422.552 1042.03 423.906C1042.03 424.74 1041.88 425.625 1041.56 426.562C1040.83 428.542 1040.1 430.469 1039.38 432.344C1039.27 432.552 1039.27 432.812 1039.38 433.125C1039.58 433.333 1039.84 433.438 1040.16 433.438H1089.53C1091.72 433.438 1093.59 434.219 1095.16 435.781C1096.72 437.24 1097.5 439.115 1097.5 441.406C1097.5 443.594 1096.72 445.469 1095.16 447.031C1093.59 448.594 1091.72 449.375 1089.53 449.375H1032.19C1031.46 449.375 1030.89 449.688 1030.47 450.312C1028.39 454.167 1026.61 457.031 1025.16 458.906C1025.05 459.115 1025.05 459.323 1025.16 459.531C1025.26 459.74 1025.42 459.844 1025.62 459.844H1084.38C1086.98 459.844 1089.17 460.781 1090.94 462.656C1092.6 464.323 1093.44 466.354 1093.44 468.75C1093.44 469.688 1093.23 474.219 1092.81 482.344C1092.6 487.969 1092.45 491.094 1092.34 491.719C1092.34 492.344 1092.66 492.656 1093.28 492.656C1095.36 492.656 1097.14 493.438 1098.59 495C1100.05 496.458 1100.78 498.229 1100.78 500.312V501.719Z" fill="#6E8DAC"/>
<path d="M305.906 940.5C304.135 940.5 302.625 939.875 301.375 938.625C300.125 937.375 299.5 935.865 299.5 934.094C299.5 933.573 299.24 933.312 298.719 933.312H274.656C272.365 933.312 270.385 932.479 268.719 930.812C267.052 929.146 266.219 927.167 266.219 924.875C266.219 922.583 267.052 920.656 268.719 919.094C270.385 917.427 272.365 916.594 274.656 916.594H298.562C299.188 916.594 299.5 916.281 299.5 915.656C299.5 913.365 300.281 911.49 301.844 910.031C303.406 908.469 305.281 907.688 307.469 907.688H310.125C312.312 907.688 314.188 908.469 315.75 910.031C317.312 911.49 318.094 913.365 318.094 915.656C318.094 916.281 318.458 916.594 319.188 916.594H353.719C354.448 916.594 354.812 916.281 354.812 915.656C354.812 913.365 355.542 911.49 357 910.031C358.562 908.469 360.49 907.688 362.781 907.688H365.438C367.625 907.688 369.448 908.469 370.906 910.031C372.469 911.49 373.25 913.365 373.25 915.656C373.25 916.281 373.615 916.594 374.344 916.594H399.656C401.948 916.594 403.927 917.427 405.594 919.094C407.26 920.656 408.094 922.583 408.094 924.875C408.094 927.167 407.26 929.146 405.594 930.812C403.927 932.479 401.948 933.312 399.656 933.312H374.188C373.562 933.312 373.25 933.573 373.25 934.094C373.25 935.865 372.625 937.375 371.375 938.625C370.125 939.875 368.667 940.5 367 940.5H361.219C359.448 940.5 357.938 939.875 356.688 938.625C355.438 937.375 354.812 935.865 354.812 934.094C354.812 933.573 354.5 933.312 353.875 933.312H318.875C318.354 933.312 318.094 933.573 318.094 934.094C318.094 935.865 317.469 937.375 316.219 938.625C314.969 939.875 313.458 940.5 311.688 940.5H305.906ZM298.875 984.562C298.875 985.292 299.292 985.656 300.125 985.656H325.75C326.479 985.656 326.844 985.292 326.844 984.562V978.781C326.844 977.948 326.479 977.531 325.75 977.531H300.125C299.292 977.531 298.875 977.948 298.875 978.781V984.562ZM300.125 957.062C299.292 957.062 298.875 957.479 298.875 958.312V963.938C298.875 964.667 299.292 965.031 300.125 965.031H325.75C326.479 965.031 326.844 964.667 326.844 963.938V958.312C326.844 957.479 326.479 957.062 325.75 957.062H300.125ZM373.406 965.031C374.24 965.031 374.656 964.667 374.656 963.938V958.312C374.656 957.479 374.24 957.062 373.406 957.062H346.688C345.854 957.062 345.438 957.479 345.438 958.312V963.938C345.438 964.667 345.854 965.031 346.688 965.031H373.406ZM373.406 985.656C374.24 985.656 374.656 985.292 374.656 984.562V978.781C374.656 977.948 374.24 977.531 373.406 977.531H346.688C345.854 977.531 345.438 977.948 345.438 978.781V984.562C345.438 985.292 345.854 985.656 346.688 985.656H373.406ZM407 1008.16C408.667 1009.72 409.5 1011.65 409.5 1013.94C409.5 1016.12 408.667 1018.05 407 1019.72C405.438 1021.28 403.562 1022.06 401.375 1022.06H366.844C366.635 1022.06 366.479 1022.17 366.375 1022.38C366.375 1022.48 366.479 1022.58 366.688 1022.69C377.208 1029.04 389.604 1034.15 403.875 1038C405.854 1038.52 407.104 1039.72 407.625 1041.59C407.833 1042.22 407.938 1042.84 407.938 1043.47C407.938 1044.72 407.521 1045.86 406.688 1046.91C406.375 1047.43 406.01 1047.9 405.594 1048.31C403.927 1050.5 401.844 1052.06 399.344 1053C397.99 1053.52 396.688 1053.78 395.438 1053.78C394.188 1053.78 392.938 1053.52 391.688 1053C373.562 1046.33 358.458 1037.11 346.375 1025.34C346.167 1025.24 345.958 1025.24 345.75 1025.34C345.542 1025.45 345.438 1025.6 345.438 1025.81V1047.69C345.438 1050.29 344.552 1052.48 342.781 1054.25C341.01 1056.02 338.823 1056.91 336.219 1056.91H336.062C333.562 1056.91 331.375 1056.02 329.5 1054.25C327.729 1052.48 326.844 1050.29 326.844 1047.69V1026.91C326.844 1026.7 326.74 1026.54 326.531 1026.44C326.427 1026.33 326.271 1026.33 326.062 1026.44C313.875 1037.58 299.188 1046.28 282 1052.53C280.854 1053.05 279.604 1053.31 278.25 1053.31C277 1053.31 275.75 1053.05 274.5 1052.53C271.896 1051.7 269.76 1050.14 268.094 1047.84C267.781 1047.43 267.417 1046.96 267 1046.44C266.167 1045.4 265.75 1044.25 265.75 1043C265.75 1042.38 265.802 1041.75 265.906 1041.12C266.531 1039.15 267.833 1037.9 269.812 1037.38C283.042 1033.62 294.76 1028.73 304.969 1022.69C305.073 1022.58 305.073 1022.48 304.969 1022.38C304.969 1022.17 304.917 1022.06 304.812 1022.06H273.406C271.219 1022.06 269.292 1021.28 267.625 1019.72C266.062 1018.05 265.281 1016.12 265.281 1013.94C265.281 1011.65 266.062 1009.72 267.625 1008.16C269.292 1006.49 271.219 1005.66 273.406 1005.66H325.75C326.479 1005.66 326.844 1005.29 326.844 1004.56V1000.34C326.844 999.51 326.479 999.094 325.75 999.094H290.438C287.833 999.094 285.646 998.208 283.875 996.438C282.104 994.667 281.219 992.479 281.219 989.875V953C281.219 950.5 282.104 948.365 283.875 946.594C285.646 944.719 287.833 943.781 290.438 943.781H383.875C386.479 943.781 388.667 944.719 390.438 946.594C392.208 948.365 393.094 950.5 393.094 953V989.875C393.094 992.479 392.208 994.667 390.438 996.438C388.667 998.208 386.479 999.094 383.875 999.094H346.688C345.854 999.094 345.438 999.51 345.438 1000.34V1004.56C345.438 1005.29 345.854 1005.66 346.688 1005.66H401.375C403.562 1005.66 405.438 1006.49 407 1008.16Z" fill="#6E8DAC"/>
<path d="M951.375 981.531C951.375 980.698 951.01 980.281 950.281 980.281H939.344C938.51 980.281 938.094 980.698 938.094 981.531V989.5C938.094 990.333 938.51 990.75 939.344 990.75H950.281C951.01 990.75 951.375 990.333 951.375 989.5V981.531ZM938.094 1015.12C938.094 1015.96 938.51 1016.38 939.344 1016.38H950.281C951.01 1016.38 951.375 1015.96 951.375 1015.12V1007.16C951.375 1006.32 951.01 1005.91 950.281 1005.91H939.344C938.51 1005.91 938.094 1006.32 938.094 1007.16V1015.12ZM908.875 1015.12C908.875 1015.96 909.24 1016.38 909.969 1016.38H919.969C920.802 1016.38 921.219 1015.96 921.219 1015.12V1007.16C921.219 1006.32 920.802 1005.91 919.969 1005.91H909.969C909.24 1005.91 908.875 1006.32 908.875 1007.16V1015.12ZM921.219 981.531C921.219 980.698 920.802 980.281 919.969 980.281H909.969C909.24 980.281 908.875 980.698 908.875 981.531V989.5C908.875 990.333 909.24 990.75 909.969 990.75H919.969C920.802 990.75 921.219 990.333 921.219 989.5V981.531ZM842.156 956.688C841.948 956.896 841.896 957.104 842 957.312C842.104 957.521 842.26 957.625 842.469 957.625H875.281C875.594 957.625 875.802 957.521 875.906 957.312C876.01 957.104 876.01 956.896 875.906 956.688C870.802 948.771 865.073 941.427 858.719 934.656C858.198 934.031 857.729 934.083 857.312 934.812C852.521 942.938 847.469 950.229 842.156 956.688ZM866.375 1041.84C867.208 1041.84 867.625 1041.48 867.625 1040.75V1027.94C867.625 1027.1 867.208 1026.69 866.375 1026.69H847.156C846.323 1026.69 845.906 1027.1 845.906 1027.94V1040.75C845.906 1041.48 846.323 1041.84 847.156 1041.84H866.375ZM967.625 939.812C969.292 941.375 970.125 943.302 970.125 945.594C970.125 947.885 969.292 949.812 967.625 951.375C966.062 952.938 964.188 953.719 962 953.719H939.344C938.51 953.719 938.094 954.135 938.094 954.969V963.094C938.094 963.927 938.51 964.344 939.344 964.344H958.875C961.375 964.344 963.51 965.229 965.281 967C967.156 968.771 968.094 970.958 968.094 973.562V1047.62C968.094 1051.58 967.677 1054.66 966.844 1056.84C966.115 1059.03 964.708 1060.85 962.625 1062.31C960.333 1063.77 957.312 1064.71 953.562 1065.12C953.25 1065.12 952.938 1065.12 952.625 1065.12C950.646 1065.12 948.875 1064.45 947.312 1063.09C945.438 1061.64 944.135 1059.66 943.406 1057.16C943.198 1056.53 943.094 1055.91 943.094 1055.28C943.094 1054.14 943.458 1053.04 944.188 1052C945.333 1050.33 946.896 1049.45 948.875 1049.34C949.083 1049.34 949.292 1049.34 949.5 1049.34C950.75 1049.34 951.375 1048.67 951.375 1047.31V1032.62C951.375 1031.9 951.01 1031.53 950.281 1031.53H939.344C938.51 1031.53 938.094 1031.9 938.094 1032.62V1056.06C938.094 1058.35 937.26 1060.33 935.594 1062C933.927 1063.67 931.896 1064.5 929.5 1064.5C927.208 1064.5 925.229 1063.67 923.562 1062C922 1060.33 921.219 1058.35 921.219 1056.06V1032.62C921.219 1031.9 920.802 1031.53 919.969 1031.53H909.969C909.24 1031.53 908.875 1031.9 908.875 1032.62V1057C908.875 1059.29 908.042 1061.22 906.375 1062.78C904.812 1064.45 902.885 1065.28 900.594 1065.28C898.302 1065.28 896.323 1064.45 894.656 1062.78C893.094 1061.22 892.312 1059.29 892.312 1057V973.562C892.312 970.958 893.198 968.771 894.969 967C896.844 965.229 899.031 964.344 901.531 964.344H919.969C920.802 964.344 921.219 963.927 921.219 963.094V954.969C921.219 954.135 920.802 953.719 919.969 953.719H894.656C893.302 953.719 892.104 953.25 891.062 952.312C890.021 951.271 889.5 950.021 889.5 948.562C889.5 948.458 889.448 948.406 889.344 948.406C889.24 948.302 889.135 948.302 889.031 948.406L881.531 957.625C881.635 957.625 881.688 957.677 881.688 957.781V965.438C881.688 967.625 880.906 969.5 879.344 971.062C877.781 972.521 875.958 973.25 873.875 973.25H866.531C865.698 973.25 865.281 973.667 865.281 974.5V982.469C865.281 983.302 865.698 983.719 866.531 983.719H880.594C882.677 983.719 884.5 984.5 886.062 986.062C887.625 987.521 888.406 989.344 888.406 991.531C888.406 993.719 887.625 995.594 886.062 997.156C884.5 998.615 882.677 999.344 880.594 999.344H866.531C865.698 999.344 865.281 999.76 865.281 1000.59V1010.12C865.281 1010.96 865.698 1011.38 866.531 1011.38H875.438C878.042 1011.38 880.229 1012.26 882 1014.03C883.771 1015.8 884.656 1017.99 884.656 1020.59V1052.94C884.656 1055.23 883.823 1057.21 882.156 1058.88C880.49 1060.54 878.458 1061.38 876.062 1061.38H871.062C870.125 1061.38 869.292 1061.01 868.562 1060.28C867.938 1059.66 867.625 1058.88 867.625 1057.94C867.625 1057.62 867.469 1057.47 867.156 1057.47H846.844C846.219 1057.47 845.906 1057.73 845.906 1058.25C845.906 1060.02 845.281 1061.53 844.031 1062.78C842.781 1064.03 841.271 1064.66 839.5 1064.66H837.625C835.333 1064.66 833.354 1063.82 831.688 1062.16C830.125 1060.59 829.344 1058.67 829.344 1056.38V1020.59C829.344 1017.99 830.229 1015.8 832 1014.03C833.771 1012.26 835.958 1011.38 838.562 1011.38H846.688C847.521 1011.38 847.938 1010.96 847.938 1010.12V1000.59C847.938 999.76 847.521 999.344 846.688 999.344H832.312C830.229 999.344 828.406 998.615 826.844 997.156C825.281 995.594 824.5 993.719 824.5 991.531C824.5 989.344 825.281 987.521 826.844 986.062C828.406 984.5 830.229 983.719 832.312 983.719H846.688C847.521 983.719 847.938 983.302 847.938 982.469V974.5C847.938 973.667 847.521 973.25 846.688 973.25H836.375C835.021 973.25 833.875 972.781 832.938 971.844C832 970.906 831.531 969.76 831.531 968.406V967.938V967.781C831.427 967.885 831.323 967.885 831.219 967.781C829.969 965.906 828.198 963.771 825.906 961.375C824.24 959.604 823.406 957.573 823.406 955.281C823.406 953.094 824.135 951.219 825.594 949.656C832.573 942.156 838.562 933.615 843.562 924.031C844.708 921.74 846.323 919.969 848.406 918.719C850.49 917.365 852.781 916.688 855.281 916.688C860.906 916.688 865.646 918.51 869.5 922.156C878.146 930.281 884.656 937.573 889.031 944.031C889.135 944.135 889.24 944.188 889.344 944.188C889.448 944.188 889.5 944.135 889.5 944.031C889.5 942.156 890.125 940.594 891.375 939.344C892.625 938.094 894.188 937.469 896.062 937.469H919.969C920.802 937.469 921.219 937.052 921.219 936.219V924.969C921.219 922.573 922 920.594 923.562 919.031C925.229 917.365 927.208 916.531 929.5 916.531C931.896 916.531 933.927 917.365 935.594 919.031C937.26 920.594 938.094 922.573 938.094 924.969V936.219C938.094 937.052 938.51 937.469 939.344 937.469H954.031C954.24 937.469 954.396 937.365 954.5 937.156C954.604 936.948 954.552 936.74 954.344 936.531C951.948 934.135 949.083 931.635 945.75 929.031C944.396 927.99 943.719 926.635 943.719 924.969C943.719 923.198 944.396 921.792 945.75 920.75C947.521 919.5 949.448 918.823 951.531 918.719C951.635 918.719 951.74 918.719 951.844 918.719C953.823 918.719 955.594 919.292 957.156 920.438C958.927 921.688 960.646 922.99 962.312 924.344C964.083 925.802 964.969 927.677 964.969 929.969C964.969 932.573 963.927 934.708 961.844 936.375L961.531 936.688C961.323 936.896 961.271 937.104 961.375 937.312C961.479 937.417 961.583 937.469 961.688 937.469H962C964.188 937.469 966.062 938.25 967.625 939.812Z" fill="#6E8DAC"/>
<path d="M653.415 397.34C649.301 375.451 657.6 332.992 723.704 338.262C720.52 354.409 702.005 388.831 653.415 397.34Z" fill="#6E8DAC"/>
</svg>
