<svg width="472" height="299" viewBox="0 0 472 299" fill="none" xmlns="http://www.w3.org/2000/svg">
<g filter="url(#filter0_d_1134_648)">
<mask id="path-1-inside-1_1134_648" fill="white">
<rect x="5" y="3" width="462" height="289" rx="17"/>
</mask>
<rect x="5" y="3" width="462" height="289" rx="17" fill="#F0DCCE"/>
<rect x="5" y="3" width="462" height="289" rx="17" stroke="white" stroke-width="40" mask="url(#path-1-inside-1_1134_648)"/>
</g>
<path d="M152.27 49.9062C152.478 49.8542 152.673 49.8802 152.855 49.9844L153.383 50.2969C153.63 50.4271 153.799 50.6224 153.891 50.8828C153.956 51.026 153.988 51.1693 153.988 51.3125C153.988 51.4167 153.969 51.5273 153.93 51.6445C153.318 53.5977 152.81 55.1081 152.406 56.1758C152.38 56.2669 152.393 56.3516 152.445 56.4297C153.396 57.6276 153.871 58.9622 153.871 60.4336C153.871 61.7487 153.565 62.6211 152.953 63.0508C152.654 63.2852 152.263 63.4349 151.781 63.5C151.716 63.513 151.638 63.5195 151.547 63.5195C151.508 63.5326 151.475 63.5391 151.449 63.5391C151.189 63.5391 150.954 63.4479 150.746 63.2656C150.512 63.0443 150.355 62.7773 150.277 62.4648C150.264 62.3867 150.258 62.3151 150.258 62.25C150.258 62.0938 150.31 61.9375 150.414 61.7812C150.557 61.5859 150.753 61.4688 151 61.4297C151.143 61.4036 151.267 61.3516 151.371 61.2734C151.605 61.1042 151.723 60.7201 151.723 60.1211C151.723 59.2227 151.469 58.3438 150.961 57.4844C150.674 57.0156 150.531 56.5469 150.531 56.0781C150.531 55.8698 150.557 55.6615 150.609 55.4531C150.896 54.4766 151.176 53.3828 151.449 52.1719C151.475 52.0807 151.436 52.0352 151.332 52.0352H149.867C149.763 52.0352 149.711 52.0872 149.711 52.1914V66.625C149.711 66.9375 149.6 67.1979 149.379 67.4062C149.171 67.6276 148.91 67.7383 148.598 67.7383C148.298 67.7383 148.038 67.6276 147.816 67.4062C147.608 67.1979 147.504 66.9375 147.504 66.625V51.0781C147.504 50.7526 147.615 50.4792 147.836 50.2578C148.057 50.0365 148.331 49.9258 148.656 49.9258H152.191C152.217 49.9258 152.243 49.9193 152.27 49.9062ZM164.809 52.6016C165.03 52.8099 165.141 53.0638 165.141 53.3633C165.141 53.6628 165.03 53.9232 164.809 54.1445C164.6 54.3529 164.346 54.457 164.047 54.457H159.008C158.904 54.457 158.852 54.5091 158.852 54.6133C158.839 55.1602 158.812 55.8503 158.773 56.6836C158.76 56.7878 158.806 56.8398 158.91 56.8398H163.09C163.402 56.8398 163.669 56.9505 163.891 57.1719C164.112 57.3932 164.223 57.6536 164.223 57.9531C164.223 59.9974 164.099 62.1263 163.852 64.3398C163.721 65.5638 163.513 66.3646 163.227 66.7422C163.005 67.0156 162.771 67.2174 162.523 67.3477C162.289 67.4779 161.996 67.569 161.645 67.6211C161.306 67.6732 160.824 67.6992 160.199 67.6992C159.874 67.6992 159.587 67.5885 159.34 67.3672C159.105 67.1458 158.943 66.8724 158.852 66.5469C158.839 66.4948 158.826 66.4362 158.812 66.3711C158.786 66.293 158.773 66.2148 158.773 66.1367C158.773 65.9805 158.819 65.8372 158.91 65.707C159.053 65.5117 159.236 65.4141 159.457 65.4141C159.47 65.4141 159.49 65.4141 159.516 65.4141C159.841 65.4271 160.147 65.4336 160.434 65.4336C160.746 65.4336 160.98 65.3359 161.137 65.1406C161.319 64.9583 161.456 64.4115 161.547 63.5C161.651 62.5885 161.736 61.1302 161.801 59.125C161.801 59.0339 161.749 58.9883 161.645 58.9883H158.715C158.611 58.9883 158.552 59.0339 158.539 59.125C158.292 60.9219 157.842 62.4714 157.191 63.7734C156.54 65.0755 155.57 66.1758 154.281 67.0742C154.086 67.1914 153.891 67.25 153.695 67.25C153.604 67.25 153.513 67.237 153.422 67.2109C153.122 67.1458 152.868 66.9831 152.66 66.7227C152.634 66.6966 152.615 66.6706 152.602 66.6445C152.445 66.4622 152.367 66.2604 152.367 66.0391C152.367 65.987 152.367 65.9414 152.367 65.9023C152.406 65.6289 152.536 65.4076 152.758 65.2383C153.305 64.8737 153.78 64.4635 154.184 64.0078C154.6 63.5521 154.939 63.0443 155.199 62.4844C155.46 61.9245 155.674 61.3776 155.844 60.8438C156.013 60.2969 156.143 59.6523 156.234 58.9102C156.326 58.168 156.384 57.4909 156.41 56.8789C156.449 56.2669 156.475 55.5117 156.488 54.6133C156.501 54.5091 156.456 54.457 156.352 54.457H154.867C154.555 54.457 154.288 54.3529 154.066 54.1445C153.858 53.9232 153.754 53.6628 153.754 53.3633C153.754 53.0638 153.858 52.8099 154.066 52.6016C154.288 52.3802 154.555 52.2695 154.867 52.2695H158.051C158.155 52.2695 158.207 52.2174 158.207 52.1133V50.2188C158.207 49.8932 158.318 49.6198 158.539 49.3984C158.76 49.1771 159.034 49.0664 159.359 49.0664H159.398C159.724 49.0664 159.997 49.1771 160.219 49.3984C160.44 49.6198 160.551 49.8932 160.551 50.2188V52.1133C160.551 52.2174 160.603 52.2695 160.707 52.2695H164.047C164.346 52.2695 164.6 52.3802 164.809 52.6016ZM173.188 49.6719C173.435 49.6719 173.643 49.763 173.812 49.9453C173.995 50.1146 174.086 50.3294 174.086 50.5898C174.086 50.8372 173.995 51.0521 173.812 51.2344C173.643 51.4036 173.435 51.4883 173.188 51.4883H168.637C168.389 51.4883 168.174 51.4036 167.992 51.2344C167.823 51.0521 167.738 50.8372 167.738 50.5898C167.738 50.3294 167.823 50.1146 167.992 49.9453C168.174 49.763 168.389 49.6719 168.637 49.6719H173.188ZM173.832 52.3672C174.092 52.3672 174.314 52.4583 174.496 52.6406C174.691 52.8229 174.789 53.0443 174.789 53.3047C174.789 53.5651 174.691 53.7865 174.496 53.9688C174.314 54.151 174.092 54.2422 173.832 54.2422H167.602C167.341 54.2422 167.12 54.151 166.938 53.9688C166.755 53.7865 166.664 53.5651 166.664 53.3047C166.664 53.0443 166.755 52.8229 166.938 52.6406C167.12 52.4583 167.341 52.3672 167.602 52.3672H173.832ZM171.898 62.6602C171.898 62.569 171.853 62.5234 171.762 62.5234H169.77C169.665 62.5234 169.613 62.569 169.613 62.6602V64.6719C169.613 64.776 169.665 64.8281 169.77 64.8281H171.762C171.853 64.8281 171.898 64.776 171.898 64.6719V62.6602ZM172.836 60.6484C173.148 60.6484 173.415 60.7591 173.637 60.9805C173.871 61.2018 173.988 61.4753 173.988 61.8008V65.5312C173.988 65.8438 173.871 66.1107 173.637 66.332C173.415 66.5664 173.148 66.6836 172.836 66.6836H169.711C169.646 66.6836 169.613 66.7096 169.613 66.7617C169.613 66.957 169.548 67.1198 169.418 67.25C169.288 67.3932 169.125 67.4648 168.93 67.4648H168.598C168.311 67.4648 168.064 67.3607 167.855 67.1523C167.66 66.957 167.562 66.7161 167.562 66.4297V61.8008C167.562 61.4753 167.673 61.2018 167.895 60.9805C168.116 60.7591 168.389 60.6484 168.715 60.6484H172.836ZM168.52 59.6523C168.272 59.6523 168.057 59.5677 167.875 59.3984C167.706 59.2292 167.621 59.0208 167.621 58.7734C167.621 58.526 167.706 58.3177 167.875 58.1484C168.057 57.9661 168.272 57.875 168.52 57.875H173.148C173.396 57.875 173.604 57.9661 173.773 58.1484C173.956 58.3177 174.047 58.526 174.047 58.7734C174.047 59.0208 173.956 59.2292 173.773 59.3984C173.604 59.5677 173.396 59.6523 173.148 59.6523H168.52ZM185.082 52.6016C185.29 52.8099 185.395 53.0638 185.395 53.3633C185.395 53.6628 185.29 53.9232 185.082 54.1445C184.874 54.3529 184.613 54.457 184.301 54.457H181.352C181.247 54.457 181.195 54.5091 181.195 54.6133V56.5859C181.195 56.6901 181.247 56.7422 181.352 56.7422H183.969C184.255 56.7422 184.496 56.8464 184.691 57.0547C184.9 57.25 185.004 57.4909 185.004 57.7773C185.004 58.0638 184.9 58.3112 184.691 58.5195C184.496 58.7148 184.255 58.8125 183.969 58.8125H181.352C181.247 58.8125 181.195 58.8646 181.195 58.9688V60.8047C181.195 60.9089 181.247 60.9609 181.352 60.9609H184.105C184.392 60.9609 184.639 61.0651 184.848 61.2734C185.056 61.4818 185.16 61.7357 185.16 62.0352C185.16 62.3216 185.056 62.569 184.848 62.7773C184.639 62.9727 184.392 63.0703 184.105 63.0703H181.352C181.247 63.0703 181.195 63.1224 181.195 63.2266V66.5859C181.195 66.9115 181.085 67.1849 180.863 67.4062C180.642 67.6276 180.368 67.7383 180.043 67.7383H179.926C179.613 67.7383 179.34 67.6276 179.105 67.4062C178.884 67.1849 178.773 66.9115 178.773 66.5859V54.6133C178.773 54.5091 178.728 54.457 178.637 54.457H178.031C177.927 54.457 177.855 54.5026 177.816 54.5938C177.387 55.375 176.951 56.0716 176.508 56.6836C176.326 56.931 176.072 57.0742 175.746 57.1133C175.694 57.1263 175.642 57.1328 175.59 57.1328C175.329 57.1328 175.089 57.0547 174.867 56.8984C174.581 56.7031 174.327 56.5273 174.105 56.3711C174.066 56.3451 174.047 56.3581 174.047 56.4102C174.047 56.5664 173.988 56.6966 173.871 56.8008C173.767 56.9049 173.637 56.957 173.48 56.957H168.539C168.279 56.957 168.057 56.8724 167.875 56.7031C167.706 56.5208 167.621 56.306 167.621 56.0586C167.621 55.7982 167.706 55.5833 167.875 55.4141C168.057 55.2318 168.279 55.1406 168.539 55.1406H173.363C173.546 55.1406 173.702 55.2057 173.832 55.3359C173.975 55.4661 174.047 55.6224 174.047 55.8047C174.047 55.8177 174.053 55.8307 174.066 55.8438C174.079 55.8438 174.092 55.8438 174.105 55.8438C175.408 54.3854 176.436 52.4648 177.191 50.082C177.283 49.7695 177.465 49.5286 177.738 49.3594C177.947 49.2422 178.161 49.1836 178.383 49.1836C178.461 49.1836 178.546 49.1901 178.637 49.2031L178.715 49.2227C179.014 49.2878 179.249 49.457 179.418 49.7305C179.522 49.8867 179.574 50.056 179.574 50.2383C179.574 50.3424 179.555 50.4531 179.516 50.5703C179.333 51.1172 179.138 51.6445 178.93 52.1523C178.917 52.1784 178.917 52.2109 178.93 52.25C178.956 52.276 178.988 52.2891 179.027 52.2891H184.301C184.613 52.2891 184.874 52.3932 185.082 52.6016ZM187.973 65.9609C187.895 66.1432 187.758 66.2539 187.562 66.293C187.38 66.3451 187.211 66.3255 187.055 66.2344C186.898 66.1432 186.794 66.0065 186.742 65.8242C186.716 65.7461 186.703 65.6745 186.703 65.6094C186.703 65.5052 186.723 65.401 186.762 65.2969C187.048 64.5807 187.243 63.5521 187.348 62.2109C187.361 62.0286 187.432 61.8854 187.562 61.7812C187.706 61.6641 187.862 61.625 188.031 61.6641C188.227 61.6901 188.383 61.7812 188.5 61.9375C188.617 62.0938 188.669 62.263 188.656 62.4453C188.552 64.0208 188.324 65.1927 187.973 65.9609ZM188.91 62.0742C188.897 61.944 188.93 61.8268 189.008 61.7227C189.099 61.6055 189.216 61.5404 189.359 61.5273C189.503 61.5143 189.626 61.5534 189.73 61.6445C189.848 61.7227 189.913 61.8333 189.926 61.9766C190.017 62.7578 190.062 63.526 190.062 64.2812C190.062 64.3854 190.062 64.4961 190.062 64.6133C190.062 64.7565 190.01 64.8867 189.906 65.0039C189.802 65.1211 189.672 65.1862 189.516 65.1992C189.372 65.2122 189.249 65.1732 189.145 65.082C189.053 64.9909 189.008 64.8737 189.008 64.7305C189.008 64.5482 189.008 64.3659 189.008 64.1836C189.008 63.5326 188.975 62.8294 188.91 62.0742ZM202.289 65.8828C202.289 65.974 202.335 66.0195 202.426 66.0195H202.875C202.966 66.0195 203.012 65.9609 203.012 65.8438V64.0078C203.012 63.9036 202.966 63.8516 202.875 63.8516H202.426C202.335 63.8516 202.289 63.9036 202.289 64.0078V65.8828ZM200.258 61.918C200.258 62.0091 200.31 62.0547 200.414 62.0547H200.805C200.909 62.0547 200.961 62.0091 200.961 61.918V60.6289C200.961 60.5247 200.909 60.4727 200.805 60.4727H200.414C200.31 60.4727 200.258 60.5247 200.258 60.6289V61.918ZM198.246 61.918C198.246 62.0091 198.292 62.0547 198.383 62.0547H198.812C198.917 62.0547 198.969 62.0091 198.969 61.918V60.6289C198.969 60.5247 198.917 60.4727 198.812 60.4727H198.383C198.292 60.4727 198.246 60.5247 198.246 60.6289V61.918ZM202.875 62.0547C202.966 62.0547 203.012 62.0091 203.012 61.918V60.6289C203.012 60.5247 202.966 60.4727 202.875 60.4727H202.426C202.335 60.4727 202.289 60.5247 202.289 60.6289V61.918C202.289 62.0091 202.335 62.0547 202.426 62.0547H202.875ZM202.582 54.5938C202.582 54.4896 202.53 54.4375 202.426 54.4375H197.758C197.667 54.4375 197.621 54.4896 197.621 54.5938V55.668C197.621 55.7721 197.667 55.8242 197.758 55.8242H202.426C202.53 55.8242 202.582 55.7721 202.582 55.668V54.5938ZM189.457 57.4453C189.366 57.4453 189.32 57.4909 189.32 57.582V58.4609C189.32 58.5521 189.366 58.5977 189.457 58.5977H190.375C190.466 58.5977 190.512 58.5521 190.512 58.4609V57.582C190.512 57.4909 190.466 57.4453 190.375 57.4453H189.457ZM190.512 51.7812C190.512 51.6901 190.466 51.6445 190.375 51.6445H189.457C189.366 51.6445 189.32 51.6901 189.32 51.7812V52.6211C189.32 52.7122 189.366 52.7578 189.457 52.7578H190.375C190.466 52.7578 190.512 52.7122 190.512 52.6211V51.7812ZM190.375 55.668C190.466 55.668 190.512 55.6159 190.512 55.5117V54.6914C190.512 54.5872 190.466 54.5352 190.375 54.5352H189.457C189.366 54.5352 189.32 54.5872 189.32 54.6914V55.5117C189.32 55.6159 189.366 55.668 189.457 55.668H190.375ZM203.734 58.6562C204.047 58.6562 204.314 58.7734 204.535 59.0078C204.77 59.2292 204.887 59.4961 204.887 59.8086V65.8828C204.887 66.2995 204.848 66.6185 204.77 66.8398C204.704 67.0742 204.568 67.2695 204.359 67.4258C204.229 67.5039 204.086 67.569 203.93 67.6211C203.839 67.6602 203.741 67.6797 203.637 67.6797C203.454 67.6797 203.272 67.6081 203.09 67.4648C202.829 67.2695 202.634 66.9961 202.504 66.6445C202.452 66.5013 202.4 66.3646 202.348 66.2344C202.335 66.2214 202.322 66.2148 202.309 66.2148C202.296 66.2148 202.289 66.2279 202.289 66.2539V66.8594C202.289 67.0417 202.224 67.1979 202.094 67.3281C201.964 67.4583 201.807 67.5234 201.625 67.5234C201.443 67.5234 201.286 67.4583 201.156 67.3281C201.026 67.1979 200.961 67.0417 200.961 66.8594V64.0078C200.961 63.9036 200.909 63.8516 200.805 63.8516H200.414C200.31 63.8516 200.258 63.9036 200.258 64.0078V66.8789C200.258 67.0482 200.193 67.1979 200.062 67.3281C199.945 67.4583 199.796 67.5234 199.613 67.5234C199.431 67.5234 199.275 67.4583 199.145 67.3281C199.027 67.1979 198.969 67.0482 198.969 66.8789V64.0078C198.969 63.9036 198.917 63.8516 198.812 63.8516H198.383C198.292 63.8516 198.246 63.9036 198.246 64.0078V66.9766C198.246 67.1849 198.168 67.3607 198.012 67.5039C197.868 67.6602 197.693 67.7383 197.484 67.7383C197.276 67.7383 197.094 67.6602 196.938 67.5039C196.794 67.3607 196.723 67.1849 196.723 66.9766V64.1445C196.723 64.1315 196.716 64.125 196.703 64.125C196.69 64.125 196.684 64.1315 196.684 64.1445C196.475 64.8216 196.228 65.4401 195.941 66C195.811 66.2474 195.603 66.3841 195.316 66.4102C195.277 66.4102 195.245 66.4102 195.219 66.4102C194.971 66.4102 194.757 66.332 194.574 66.1758C194.522 66.1367 194.477 66.1042 194.438 66.0781C194.411 66.0521 194.379 66.0456 194.34 66.0586C194.314 66.0716 194.294 66.0911 194.281 66.1172C194.19 66.5208 194.086 66.8008 193.969 66.957C193.669 67.3607 193.253 67.6016 192.719 67.6797C192.458 67.7188 192.12 67.7383 191.703 67.7383C191.456 67.7383 191.234 67.6471 191.039 67.4648C190.844 67.2956 190.707 67.0742 190.629 66.8008C190.577 66.6055 190.609 66.4167 190.727 66.2344C190.844 66.0651 191.007 65.987 191.215 66C191.358 66 191.534 66 191.742 66C192.003 66 192.198 65.9219 192.328 65.7656C192.484 65.5443 192.608 64.8672 192.699 63.7344C192.699 63.7083 192.693 63.6953 192.68 63.6953C192.667 63.6823 192.654 63.6758 192.641 63.6758C192.51 63.7279 192.387 63.7214 192.27 63.6562C192.152 63.5911 192.081 63.4935 192.055 63.3633C191.924 62.8294 191.736 62.2695 191.488 61.6836C191.436 61.5664 191.436 61.4557 191.488 61.3516C191.54 61.2344 191.625 61.1562 191.742 61.1172C191.872 61.0781 191.996 61.0846 192.113 61.1367C192.23 61.1888 192.322 61.2734 192.387 61.3906C192.517 61.7031 192.634 62.0026 192.738 62.2891C192.738 62.3021 192.745 62.3086 192.758 62.3086C192.784 62.2956 192.797 62.2826 192.797 62.2695C192.81 62.0872 192.823 61.8008 192.836 61.4102C192.849 61.0065 192.862 60.7396 192.875 60.6094C192.875 60.5052 192.829 60.4531 192.738 60.4531H188.598C188.272 60.4531 187.999 60.3424 187.777 60.1211C187.556 59.8997 187.445 59.6263 187.445 59.3008V50.9414C187.445 50.6159 187.556 50.3424 187.777 50.1211C187.999 49.8997 188.272 49.7891 188.598 49.7891H193.91C194.171 49.7891 194.392 49.8802 194.574 50.0625C194.757 50.2318 194.848 50.4466 194.848 50.707C194.848 50.9674 194.757 51.1888 194.574 51.3711C194.392 51.5534 194.171 51.6445 193.91 51.6445H192.504C192.413 51.6445 192.367 51.6901 192.367 51.7812V52.6211C192.367 52.7122 192.413 52.7578 192.504 52.7578H193.422C193.669 52.7578 193.878 52.849 194.047 53.0312C194.229 53.2005 194.32 53.4089 194.32 53.6562C194.32 53.9036 194.229 54.112 194.047 54.2812C193.878 54.4505 193.669 54.5352 193.422 54.5352H192.504C192.413 54.5352 192.367 54.5872 192.367 54.6914V55.5117C192.367 55.6159 192.413 55.668 192.504 55.668H193.422C193.669 55.668 193.878 55.7526 194.047 55.9219C194.229 56.0911 194.32 56.2995 194.32 56.5469C194.32 56.7943 194.229 57.0091 194.047 57.1914C193.878 57.3607 193.669 57.4453 193.422 57.4453H192.504C192.413 57.4453 192.367 57.4909 192.367 57.582V58.4609C192.367 58.5521 192.413 58.5977 192.504 58.5977H193.656C193.969 58.5977 194.236 58.7148 194.457 58.9492C194.665 59.1576 194.77 59.4115 194.77 59.7109C194.77 60.9349 194.698 62.4323 194.555 64.2031C194.555 64.2161 194.561 64.2227 194.574 64.2227C194.587 64.2227 194.594 64.2161 194.594 64.2031C195.323 62.3802 195.688 59.8477 195.688 56.6055V51.0977C195.688 50.8112 195.798 50.5768 196.02 50.3945C196.176 50.2773 196.345 50.2188 196.527 50.2188C196.605 50.2188 196.69 50.2383 196.781 50.2773H196.82C196.911 50.3034 197.009 50.3099 197.113 50.2969C198.988 50.0625 200.577 49.7826 201.879 49.457C202.087 49.4049 202.289 49.3789 202.484 49.3789C202.992 49.3789 203.441 49.5547 203.832 49.9062L203.871 49.9258C204.001 50.056 204.066 50.2057 204.066 50.375C204.066 50.4271 204.06 50.4857 204.047 50.5508C203.995 50.7852 203.845 50.9349 203.598 51C201.931 51.4036 199.984 51.7161 197.758 51.9375C197.667 51.9505 197.621 52.0091 197.621 52.1133V52.6016C197.621 52.6927 197.667 52.7383 197.758 52.7383H203.48C203.806 52.7383 204.079 52.8555 204.301 53.0898C204.522 53.3112 204.633 53.5781 204.633 53.8906V56.3906C204.633 56.7031 204.522 56.9766 204.301 57.2109C204.079 57.4323 203.806 57.543 203.48 57.543H197.758C197.667 57.543 197.621 57.5885 197.621 57.6797C197.608 57.888 197.589 58.168 197.562 58.5195C197.562 58.6107 197.608 58.6562 197.699 58.6562H203.734ZM191.605 64.0664C191.605 64.1836 191.573 64.2943 191.508 64.3984C191.417 64.5156 191.299 64.5872 191.156 64.6133C191.117 64.6133 191.085 64.6133 191.059 64.6133C190.967 64.6133 190.876 64.5807 190.785 64.5156C190.681 64.4375 190.622 64.3268 190.609 64.1836C190.544 63.4935 190.414 62.7383 190.219 61.918C190.206 61.8789 190.199 61.8398 190.199 61.8008C190.199 61.7096 190.225 61.625 190.277 61.5469C190.355 61.4427 190.453 61.3776 190.57 61.3516C190.609 61.3516 190.642 61.3516 190.668 61.3516C190.772 61.3516 190.87 61.3776 190.961 61.4297C191.078 61.5078 191.156 61.612 191.195 61.7422C191.469 62.875 191.605 63.6497 191.605 64.0664ZM219.965 61.7422C219.652 61.7422 219.379 61.6315 219.145 61.4102C218.923 61.1758 218.812 60.9023 218.812 60.5898V50.1211C218.812 49.7956 218.923 49.5221 219.145 49.3008C219.379 49.0794 219.652 48.9688 219.965 48.9688H224.359C224.659 48.9688 224.913 49.0729 225.121 49.2812C225.329 49.4896 225.434 49.7435 225.434 50.043C225.434 50.3424 225.329 50.5964 225.121 50.8047C224.913 51.013 224.659 51.1172 224.359 51.1172H221.332C221.228 51.1172 221.176 51.1693 221.176 51.2734V60.5898C221.176 60.9023 221.065 61.1758 220.844 61.4102C220.622 61.6315 220.349 61.7422 220.023 61.7422H219.965ZM230.023 63.4219C230.023 63.513 230.069 63.5586 230.16 63.5586H241.801C241.892 63.5586 241.938 63.513 241.938 63.4219V59.9844C241.938 59.9583 241.924 59.9453 241.898 59.9453C241.885 59.9323 241.872 59.9388 241.859 59.9648C241.703 60.1471 241.508 60.2839 241.273 60.375C240.961 60.5312 240.557 60.6094 240.062 60.6094H238.773C238.135 60.6094 237.621 60.4336 237.23 60.082C237.048 59.8997 236.911 59.6589 236.82 59.3594C236.742 59.0599 236.703 58.5846 236.703 57.9336V53.2461C236.703 53.1549 236.651 53.1094 236.547 53.1094H235.121C235.03 53.1094 234.978 53.1549 234.965 53.2461C234.861 55.1081 234.626 56.6576 234.262 57.8945C233.91 59.1315 233.285 60.1797 232.387 61.0391C232.191 61.1953 231.983 61.2734 231.762 61.2734C231.71 61.2734 231.651 61.2734 231.586 61.2734C231.286 61.2214 231.033 61.0651 230.824 60.8047C230.59 60.5182 230.362 60.2839 230.141 60.1016C230.115 60.0755 230.089 60.069 230.062 60.082C230.036 60.0951 230.023 60.1146 230.023 60.1406V63.4219ZM232.641 53.2461C232.641 53.1549 232.589 53.1094 232.484 53.1094H230.16C230.069 53.1094 230.023 53.1549 230.023 53.2461V59.8086C230.023 59.8477 230.036 59.8737 230.062 59.8867C230.089 59.8997 230.115 59.8997 230.141 59.8867C230.622 59.5352 231.026 59.1315 231.352 58.6758C231.677 58.2201 231.924 57.6927 232.094 57.0938C232.276 56.4948 232.4 55.9089 232.465 55.3359C232.543 54.763 232.602 54.0664 232.641 53.2461ZM241.801 57.2695C241.84 57.2826 241.872 57.2826 241.898 57.2695C241.924 57.2435 241.938 57.2109 241.938 57.1719V53.2461C241.938 53.1549 241.892 53.1094 241.801 53.1094H239.125C239.034 53.1094 238.988 53.1549 238.988 53.2461V57.9922C238.988 58.3047 239.014 58.487 239.066 58.5391C239.145 58.6042 239.249 58.6367 239.379 58.6367H239.906C240.076 58.6367 240.199 58.6172 240.277 58.5781C240.395 58.513 240.466 58.3698 240.492 58.1484C240.518 58.0443 240.538 57.888 240.551 57.6797C240.564 57.4323 240.681 57.2565 240.902 57.1523C241.007 57.1003 241.111 57.0742 241.215 57.0742C241.332 57.0742 241.443 57.1003 241.547 57.1523C241.638 57.1914 241.723 57.2305 241.801 57.2695ZM227.621 51.9766C227.621 51.651 227.732 51.3776 227.953 51.1562C228.188 50.9349 228.461 50.8242 228.773 50.8242H243.285C243.611 50.8242 243.884 50.9349 244.105 51.1562C244.327 51.3776 244.438 51.651 244.438 51.9766V65.8438C244.438 66.1693 244.327 66.4427 244.105 66.6641C243.884 66.8854 243.611 66.9961 243.285 66.9961H242.953C242.667 66.9961 242.426 66.8984 242.23 66.7031C242.035 66.5078 241.938 66.2669 241.938 65.9805C241.938 65.9023 241.898 65.8633 241.82 65.8633H230.16C230.069 65.8633 230.023 65.9089 230.023 66C230.023 66.3255 229.906 66.599 229.672 66.8203C229.451 67.0417 229.184 67.1523 228.871 67.1523H228.773C228.461 67.1523 228.188 67.0417 227.953 66.8203C227.732 66.599 227.621 66.3255 227.621 66V51.9766ZM257.309 56.6055C257.309 56.6445 257.322 56.6706 257.348 56.6836C257.374 56.6966 257.393 56.6901 257.406 56.6641L257.895 56.2539C258.155 56.0456 258.454 55.9349 258.793 55.9219C258.819 55.9219 258.839 55.9219 258.852 55.9219C259.164 55.9219 259.451 56.013 259.711 56.1953C261.885 57.7969 263.526 59.1055 264.633 60.1211C264.841 60.3294 264.945 60.5833 264.945 60.8828C264.945 61.2083 264.822 61.4818 264.574 61.7031L264.281 61.9961C264.06 62.1914 263.806 62.2891 263.52 62.2891C263.493 62.2891 263.467 62.2826 263.441 62.2695C263.129 62.2565 262.862 62.1393 262.641 61.918C261.378 60.6419 259.633 59.1445 257.406 57.4258C257.393 57.4128 257.374 57.4128 257.348 57.4258C257.322 57.4388 257.309 57.4583 257.309 57.4844V66.5469C257.309 66.8594 257.191 67.1263 256.957 67.3477C256.736 67.582 256.469 67.6992 256.156 67.6992H255.844C255.531 67.6992 255.258 67.582 255.023 67.3477C254.802 67.1263 254.691 66.8594 254.691 66.5469V58.0898C254.691 58.0638 254.678 58.0443 254.652 58.0312C254.639 58.0182 254.62 58.0247 254.594 58.0508C252.953 59.7956 251.202 61.2148 249.34 62.3086C249.158 62.4128 248.962 62.4648 248.754 62.4648C248.663 62.4648 248.565 62.4518 248.461 62.4258C248.148 62.3477 247.895 62.1719 247.699 61.8984C247.608 61.7943 247.523 61.6901 247.445 61.5859C247.315 61.4036 247.25 61.2148 247.25 61.0195C247.25 60.9544 247.257 60.8828 247.27 60.8047C247.322 60.5312 247.471 60.3229 247.719 60.1797C249.242 59.3333 250.655 58.2721 251.957 56.9961C253.272 55.7201 254.366 54.3789 255.238 52.9727C255.264 52.9466 255.264 52.9206 255.238 52.8945C255.225 52.8555 255.206 52.8359 255.18 52.8359H248.5C248.174 52.8359 247.901 52.7253 247.68 52.5039C247.458 52.2826 247.348 52.0091 247.348 51.6836V51.5469C247.348 51.2344 247.458 50.9674 247.68 50.7461C247.901 50.5117 248.174 50.3945 248.5 50.3945H263.52C263.845 50.3945 264.118 50.5117 264.34 50.7461C264.561 50.9674 264.672 51.2344 264.672 51.5469V51.6836C264.672 52.0091 264.561 52.2826 264.34 52.5039C264.118 52.7253 263.845 52.8359 263.52 52.8359H258.598C258.507 52.8359 258.435 52.8815 258.383 52.9727C258.109 53.4674 257.777 53.9948 257.387 54.5547C257.335 54.6328 257.309 54.724 257.309 54.8281V56.6055ZM272.055 55.0625C272.367 55.0625 272.634 55.1732 272.855 55.3945C273.09 55.6159 273.207 55.8893 273.207 56.2148V66.6836C273.207 67.0091 273.09 67.2826 272.855 67.5039C272.634 67.7253 272.367 67.8359 272.055 67.8359H267.641C267.341 67.8359 267.087 67.7318 266.879 67.5234C266.671 67.3151 266.566 67.0612 266.566 66.7617C266.566 66.4622 266.671 66.2083 266.879 66C267.087 65.7917 267.341 65.6875 267.641 65.6875H270.668C270.772 65.6875 270.824 65.6354 270.824 65.5312V56.2148C270.824 55.8893 270.935 55.6159 271.156 55.3945C271.378 55.1732 271.651 55.0625 271.977 55.0625H272.055ZM301.586 52.3477C301.69 52.3477 301.742 52.2956 301.742 52.1914V51.4883C301.742 51.3841 301.69 51.332 301.586 51.332H296.508C296.404 51.332 296.352 51.3841 296.352 51.4883V52.1914C296.352 52.2956 296.404 52.3477 296.508 52.3477H301.586ZM301.586 54.9062C301.69 54.9062 301.742 54.8542 301.742 54.75V54.0273C301.742 53.9232 301.69 53.8711 301.586 53.8711H296.508C296.404 53.8711 296.352 53.9232 296.352 54.0273V54.75C296.352 54.8542 296.404 54.9062 296.508 54.9062H301.586ZM302.875 49.6719C303.188 49.6719 303.454 49.7891 303.676 50.0234C303.91 50.2448 304.027 50.5117 304.027 50.8242V55.4336C304.027 55.7461 303.91 56.0195 303.676 56.2539C303.454 56.4753 303.188 56.5859 302.875 56.5859H295.336C295.01 56.5859 294.737 56.4753 294.516 56.2539C294.294 56.0195 294.184 55.7461 294.184 55.4336V50.8242C294.184 50.5117 294.294 50.2448 294.516 50.0234C294.737 49.7891 295.01 49.6719 295.336 49.6719H302.875ZM292.992 58.5977C293.005 58.6628 293.012 58.7279 293.012 58.793C293.012 59.0273 292.947 59.2422 292.816 59.4375C292.647 59.7109 292.419 59.8867 292.133 59.9648L291.176 60.2578C291.085 60.2839 291.039 60.349 291.039 60.4531V64.9648C291.039 65.5247 290.98 65.9609 290.863 66.2734C290.759 66.5859 290.557 66.8268 290.258 66.9961C289.893 67.2435 289.353 67.3932 288.637 67.4453C288.611 67.4453 288.585 67.4453 288.559 67.4453C288.272 67.4453 288.012 67.3477 287.777 67.1523C287.53 66.944 287.361 66.6771 287.27 66.3516C287.217 66.1823 287.217 66.0195 287.27 65.8633C287.322 65.694 287.413 65.5573 287.543 65.4531C287.686 65.349 287.842 65.2969 288.012 65.2969C288.259 65.2969 288.435 65.2904 288.539 65.2773C288.656 65.2773 288.741 65.2578 288.793 65.2188C288.845 65.1667 288.871 65.0755 288.871 64.9453V61.0781C288.871 61.0521 288.858 61.026 288.832 61C288.806 60.974 288.773 60.9674 288.734 60.9805C288.565 61.0326 288.37 61.0846 288.148 61.1367C288.044 61.1758 287.94 61.1953 287.836 61.1953C287.641 61.1953 287.458 61.1432 287.289 61.0391C287.016 60.8828 286.846 60.6484 286.781 60.3359L286.762 60.2773C286.736 60.1862 286.723 60.0951 286.723 60.0039C286.723 59.7956 286.781 59.6003 286.898 59.418C287.068 59.1445 287.309 58.9688 287.621 58.8906C287.66 58.8906 287.816 58.8581 288.09 58.793C288.363 58.7148 288.578 58.6562 288.734 58.6172C288.826 58.5911 288.871 58.5326 288.871 58.4414V55.1797C288.871 55.0885 288.826 55.043 288.734 55.043H287.816C287.517 55.043 287.257 54.9388 287.035 54.7305C286.827 54.5091 286.723 54.2487 286.723 53.9492C286.723 53.6367 286.827 53.3763 287.035 53.168C287.257 52.9466 287.517 52.8359 287.816 52.8359H288.734C288.826 52.8359 288.871 52.7904 288.871 52.6992V50.1406C288.871 49.8411 288.975 49.5872 289.184 49.3789C289.405 49.1706 289.665 49.0664 289.965 49.0664C290.264 49.0664 290.518 49.1706 290.727 49.3789C290.935 49.5872 291.039 49.8411 291.039 50.1406V52.6992C291.039 52.7904 291.091 52.8359 291.195 52.8359H291.938C292.237 52.8359 292.491 52.9466 292.699 53.168C292.921 53.3763 293.031 53.6367 293.031 53.9492C293.031 54.2487 292.921 54.5091 292.699 54.7305C292.491 54.9388 292.237 55.043 291.938 55.043H291.195C291.091 55.043 291.039 55.0885 291.039 55.1797V57.8555C291.039 57.8945 291.052 57.9271 291.078 57.9531C291.117 57.9661 291.15 57.9661 291.176 57.9531L291.801 57.7969C291.892 57.7708 291.977 57.7578 292.055 57.7578C292.237 57.7578 292.413 57.8164 292.582 57.9336C292.816 58.0898 292.953 58.3112 292.992 58.5977ZM300.277 63.0312C300.186 63.0312 300.141 63.0833 300.141 63.1875V65.1992C300.141 65.2904 300.186 65.3424 300.277 65.3555C300.694 65.3815 301.117 65.3945 301.547 65.3945H304.477C304.724 65.3945 304.919 65.4987 305.062 65.707C305.154 65.8503 305.199 66 305.199 66.1562C305.199 66.2344 305.186 66.3125 305.16 66.3906C305.069 66.7031 304.9 66.957 304.652 67.1523C304.405 67.3607 304.132 67.4648 303.832 67.4648H301.449C300.017 67.4648 298.826 67.2695 297.875 66.8789C296.938 66.5013 296.15 65.7721 295.512 64.6914C295.499 64.6654 295.473 64.6523 295.434 64.6523C295.408 64.6523 295.388 64.6654 295.375 64.6914C295.023 65.5247 294.6 66.2539 294.105 66.8789C293.91 67.1133 293.656 67.237 293.344 67.25C293.331 67.25 293.318 67.25 293.305 67.25C293.005 67.25 292.738 67.1523 292.504 66.957C292.27 66.7617 292.152 66.5013 292.152 66.1758C292.152 65.9154 292.237 65.6875 292.406 65.4922C293.292 64.4375 293.897 62.9727 294.223 61.0977C294.275 60.7982 294.418 60.5573 294.652 60.375C294.861 60.2188 295.082 60.1406 295.316 60.1406C295.368 60.1406 295.414 60.1406 295.453 60.1406C295.753 60.1797 295.993 60.3164 296.176 60.5508C296.319 60.7461 296.391 60.9479 296.391 61.1562C296.391 61.2214 296.384 61.2865 296.371 61.3516C296.319 61.638 296.26 61.9049 296.195 62.1523C296.169 62.2565 296.176 62.3542 296.215 62.4453C296.592 63.3958 297.113 64.099 297.777 64.5547C297.803 64.5807 297.829 64.5872 297.855 64.5742C297.882 64.5482 297.895 64.5221 297.895 64.4961V59.5742C297.895 59.4701 297.849 59.418 297.758 59.418H294.164C293.891 59.418 293.663 59.3268 293.48 59.1445C293.298 58.9492 293.207 58.7214 293.207 58.4609C293.207 58.2005 293.298 57.9792 293.48 57.7969C293.663 57.6016 293.891 57.5039 294.164 57.5039H304.066C304.327 57.5039 304.548 57.6016 304.73 57.7969C304.926 57.9792 305.023 58.2005 305.023 58.4609C305.023 58.7214 304.926 58.9492 304.73 59.1445C304.548 59.3268 304.327 59.418 304.066 59.418H300.277C300.186 59.418 300.141 59.4701 300.141 59.5742V61.0391C300.141 61.1302 300.186 61.1758 300.277 61.1758H303.031C303.292 61.1758 303.513 61.2669 303.695 61.4492C303.878 61.6315 303.969 61.8529 303.969 62.1133C303.969 62.3737 303.878 62.5951 303.695 62.7773C303.513 62.9466 303.292 63.0312 303.031 63.0312H300.277ZM308.988 64.418C308.988 64.5091 309.034 64.5547 309.125 64.5547H313.402C313.493 64.5547 313.539 64.5091 313.539 64.418V63.4609C313.539 63.3698 313.493 63.3242 313.402 63.3242H309.125C309.034 63.3242 308.988 63.3698 308.988 63.4609V64.418ZM309.73 55.707C309.73 55.6029 309.685 55.5508 309.594 55.5508H309.125C309.034 55.5508 308.988 55.6029 308.988 55.707V59.4961C308.988 59.5221 308.995 59.5417 309.008 59.5547C309.034 59.5547 309.053 59.5482 309.066 59.5352C309.509 58.9492 309.73 58.1094 309.73 57.0156V55.707ZM311.039 51.8008C310.948 51.8008 310.902 51.8464 310.902 51.9375V53.4609C310.902 53.5521 310.948 53.5977 311.039 53.5977H311.469C311.573 53.5977 311.625 53.5521 311.625 53.4609V51.9375C311.625 51.8464 311.573 51.8008 311.469 51.8008H311.039ZM313.48 58.4219C313.52 58.4219 313.539 58.3958 313.539 58.3438V55.707C313.539 55.6029 313.493 55.5508 313.402 55.5508H312.914C312.81 55.5508 312.758 55.6029 312.758 55.707V58.168C312.758 58.2852 312.771 58.3633 312.797 58.4023C312.823 58.4284 312.868 58.4414 312.934 58.4414H313.285C313.389 58.4414 313.454 58.4349 313.48 58.4219ZM311.039 55.5508C310.948 55.5508 310.902 55.6029 310.902 55.707V57.0352C310.902 58.181 310.701 59.1185 310.297 59.8477C310.18 60.056 309.997 60.1667 309.75 60.1797C309.724 60.1797 309.698 60.1797 309.672 60.1797C309.451 60.1797 309.249 60.1081 309.066 59.9648C309.053 59.9518 309.034 59.9518 309.008 59.9648C308.995 59.9779 308.988 59.9974 308.988 60.0234V61.3711C308.988 61.4753 309.034 61.5273 309.125 61.5273H313.402C313.493 61.5273 313.539 61.4753 313.539 61.3711V59.8086C313.539 59.7044 313.493 59.6523 313.402 59.6523H312.797C312.328 59.6523 312.009 59.5547 311.84 59.3594C311.684 59.1641 311.605 58.7734 311.605 58.1875V55.707C311.605 55.6029 311.553 55.5508 311.449 55.5508H311.039ZM318.598 54.2617C318.507 54.2617 318.461 54.3073 318.461 54.3984V55.1797C318.461 55.2708 318.507 55.3164 318.598 55.3164H322.289C322.393 55.3164 322.445 55.2708 322.445 55.1797V54.3984C322.445 54.3073 322.393 54.2617 322.289 54.2617H318.598ZM318.598 51.6055C318.507 51.6055 318.461 51.651 318.461 51.7422V52.5039C318.461 52.6081 318.507 52.6602 318.598 52.6602H322.289C322.393 52.6602 322.445 52.6081 322.445 52.5039V51.7422C322.445 51.651 322.393 51.6055 322.289 51.6055H318.598ZM321.566 65.2383C321.566 65.3294 321.612 65.375 321.703 65.375H324.418C324.678 65.375 324.9 65.4727 325.082 65.668C325.277 65.8503 325.375 66.0716 325.375 66.332C325.375 66.6055 325.277 66.8333 325.082 67.0156C324.9 67.2109 324.678 67.3086 324.418 67.3086H316.762C316.501 67.3086 316.273 67.2109 316.078 67.0156C315.896 66.8333 315.805 66.6055 315.805 66.332C315.805 66.0716 315.896 65.8503 316.078 65.668C316.273 65.4727 316.501 65.375 316.762 65.375H319.32C319.411 65.375 319.457 65.3294 319.457 65.2383V63.8906C319.457 63.7865 319.411 63.7344 319.32 63.7344H317.465C317.217 63.7344 317.003 63.6497 316.82 63.4805C316.651 63.2982 316.566 63.0833 316.566 62.8359C316.566 62.5755 316.651 62.3607 316.82 62.1914C317.003 62.0091 317.217 61.918 317.465 61.918H319.32C319.411 61.918 319.457 61.8724 319.457 61.7812V60.6094C319.457 60.5052 319.411 60.4531 319.32 60.4531H317.484C317.393 60.4531 317.322 60.4987 317.27 60.5898C317.191 60.707 317.113 60.8177 317.035 60.9219C316.866 61.1562 316.632 61.293 316.332 61.332C316.28 61.332 316.228 61.332 316.176 61.332C315.941 61.332 315.727 61.2734 315.531 61.1562C315.505 61.1302 315.479 61.1302 315.453 61.1562C315.427 61.1693 315.414 61.1888 315.414 61.2148V66.3711C315.414 66.6315 315.323 66.8529 315.141 67.0352C314.958 67.2305 314.737 67.3281 314.477 67.3281H314.359C314.138 67.3281 313.943 67.2435 313.773 67.0742C313.617 66.918 313.539 66.7292 313.539 66.5078C313.539 66.4297 313.507 66.3906 313.441 66.3906H309.125C309.034 66.3906 308.988 66.4362 308.988 66.5273V66.7031C308.988 66.9505 308.897 67.1589 308.715 67.3281C308.546 67.5104 308.331 67.6016 308.07 67.6016C307.823 67.6016 307.608 67.5104 307.426 67.3281C307.257 67.1589 307.172 66.9505 307.172 66.7031V54.75C307.172 54.4375 307.283 54.1706 307.504 53.9492C307.738 53.7148 308.012 53.5977 308.324 53.5977H309.164C309.268 53.5977 309.32 53.5521 309.32 53.4609V51.9375C309.32 51.8464 309.268 51.8008 309.164 51.8008H307.973C307.699 51.8008 307.465 51.7031 307.27 51.5078C307.074 51.3125 306.977 51.0781 306.977 50.8047C306.977 50.5312 307.074 50.3034 307.27 50.1211C307.465 49.9258 307.699 49.8281 307.973 49.8281H314.516C314.789 49.8281 315.017 49.9258 315.199 50.1211C315.395 50.3034 315.492 50.5312 315.492 50.8047C315.492 51.0781 315.395 51.3125 315.199 51.5078C315.017 51.7031 314.789 51.8008 314.516 51.8008H313.344C313.253 51.8008 313.207 51.8464 313.207 51.9375V53.4609C313.207 53.5521 313.253 53.5977 313.344 53.5977H314.262C314.587 53.5977 314.861 53.7148 315.082 53.9492C315.303 54.1706 315.414 54.4375 315.414 54.75V59.9844C315.414 60.0104 315.427 60.0299 315.453 60.043C315.479 60.043 315.499 60.0365 315.512 60.0234C315.941 59.4505 316.306 58.7865 316.605 58.0312C316.697 57.7969 316.853 57.6146 317.074 57.4844C317.23 57.3932 317.393 57.3477 317.562 57.3477C317.641 57.3477 317.712 57.3542 317.777 57.3672C318.012 57.4193 318.194 57.5495 318.324 57.7578C318.389 57.875 318.422 57.9987 318.422 58.1289C318.422 58.2201 318.402 58.3112 318.363 58.4023C318.35 58.4414 318.337 58.474 318.324 58.5C318.311 58.526 318.311 58.5521 318.324 58.5781C318.35 58.6042 318.376 58.6172 318.402 58.6172H319.32C319.411 58.6172 319.457 58.5716 319.457 58.4805V57.25C319.457 57.1458 319.411 57.0938 319.32 57.0938H317.543C317.23 57.0938 316.957 56.9831 316.723 56.7617C316.501 56.5404 316.391 56.2669 316.391 55.9414V50.9805C316.391 50.6549 316.501 50.3815 316.723 50.1602C316.957 49.9388 317.23 49.8281 317.543 49.8281H323.422C323.747 49.8281 324.021 49.9388 324.242 50.1602C324.464 50.3815 324.574 50.6549 324.574 50.9805V55.9414C324.574 56.2669 324.464 56.5404 324.242 56.7617C324.021 56.9831 323.747 57.0938 323.422 57.0938H321.703C321.612 57.0938 321.566 57.1458 321.566 57.25V58.4805C321.566 58.5716 321.612 58.6172 321.703 58.6172H323.969C324.216 58.6172 324.431 58.7083 324.613 58.8906C324.796 59.0729 324.887 59.2943 324.887 59.5547C324.887 59.8021 324.796 60.0169 324.613 60.1992C324.431 60.3685 324.216 60.4531 323.969 60.4531H321.703C321.612 60.4531 321.566 60.5052 321.566 60.6094V61.7812C321.566 61.8724 321.612 61.918 321.703 61.918H323.656C323.904 61.918 324.112 62.0091 324.281 62.1914C324.464 62.3607 324.555 62.5755 324.555 62.8359C324.555 63.0833 324.464 63.2982 324.281 63.4805C324.112 63.6497 323.904 63.7344 323.656 63.7344H321.703C321.612 63.7344 321.566 63.7865 321.566 63.8906V65.2383Z" fill="#444444"/>
<path d="M132.12 110.728H145.864V111.816H132.12V110.728ZM139.976 115.272L140.76 114.584C142.68 115.8 145.112 117.592 146.312 118.808L145.448 119.64C144.312 118.408 141.896 116.536 139.976 115.272ZM139.736 111.096L140.888 111.528C139.08 114.824 136.072 117.976 132.456 119.88C132.28 119.608 131.96 119.192 131.736 118.952C135.224 117.208 138.216 114.136 139.736 111.096ZM138.408 114.168L139.544 113.032V124.232H138.408V114.168ZM152.168 114.952V117.416H160.984V114.952H152.168ZM151.24 114.184H161.944V118.184H151.24V114.184ZM153.832 112.536H159.416V113.32H153.832V112.536ZM156.088 114.472H157.016V117.8H156.088V114.472ZM153.208 115.448L153.992 115.16C154.424 115.72 154.84 116.488 155 117L154.184 117.32C154.04 116.808 153.64 116.024 153.208 115.448ZM159.064 115.096L159.992 115.416C159.624 116.104 159.208 116.84 158.872 117.336L158.12 117.048C158.424 116.52 158.856 115.656 159.064 115.096ZM152.2 118.984H161.16V124.184H160.088V119.768H153.256V124.248H152.2V118.984ZM152.824 120.92H160.552V121.72H152.824V120.92ZM152.84 122.904H160.552V123.688H152.84V122.904ZM156.52 109.544L157.464 109.896C155.784 112.104 152.792 113.624 149.864 114.584C149.752 114.36 149.432 113.928 149.224 113.736C152.152 112.936 155.016 111.496 156.52 109.544ZM157.112 110.056C158.6 111.624 161.512 113 164.088 113.624C163.848 113.816 163.56 114.2 163.4 114.472C160.824 113.752 157.88 112.2 156.264 110.424L157.112 110.056ZM167.048 110.648H174.168V111.64H167.048V110.648ZM167.272 118.04H173.864V119.032H167.272V118.04ZM170.088 116.152H171.16V122.264H170.088V116.152ZM166.84 122.28C168.648 122.008 171.48 121.512 174.184 121.032L174.232 122.056C171.656 122.536 168.936 123.032 167.016 123.384L166.84 122.28ZM171.224 112.872L172.04 112.472C172.76 113.432 173.592 114.744 173.96 115.56L173.096 116.04C172.744 115.208 171.928 113.848 171.224 112.872ZM176.024 112.584H180.248V113.592H176.024V112.584ZM176.376 109.64L177.4 109.8C176.856 113.032 175.992 116.2 174.664 118.328C174.552 118.088 174.216 117.592 174.008 117.352C175.192 115.48 175.944 112.584 176.376 109.64ZM175.016 112.408C175.976 117.368 177.976 121.624 181.544 123.416C181.304 123.608 180.968 123.976 180.792 124.264C177.16 122.248 175.208 117.864 174.168 112.568L175.016 112.408ZM167.416 115.88C167.368 115.656 167.192 115.16 167.064 114.888C167.304 114.824 167.544 114.568 167.8 114.184C168.104 113.8 169 112.36 169.544 110.968L170.632 111.256C169.912 112.776 168.968 114.28 168.12 115.304V115.32C168.12 115.32 167.416 115.64 167.416 115.88ZM167.416 115.88L167.4 115.08L167.992 114.728L172.952 114.344C172.984 114.616 173.064 115 173.112 115.224C168.344 115.672 167.752 115.736 167.416 115.88ZM180.008 112.584H180.2L180.392 112.536L181.064 112.76C180.2 118.872 177.48 122.568 173.928 124.312C173.784 124.04 173.448 123.576 173.208 123.352C176.568 121.896 179.224 118.248 180.008 112.808V112.584ZM186.952 119.208H196.632V119.96H186.952V119.208ZM186.984 117.24H197.24V121.944H186.984V121.144H196.184V118.04H186.984V117.24ZM191.176 117.624H192.216V122.52C192.216 123.048 192.408 123.16 193.432 123.16C193.928 123.16 196.472 123.16 197.112 123.16C197.976 123.16 198.12 122.888 198.2 121.224C198.44 121.384 198.84 121.544 199.144 121.592C198.984 123.544 198.648 124.04 197.176 124.04C196.776 124.04 193.784 124.04 193.4 124.04C191.672 124.04 191.176 123.752 191.176 122.504V117.624ZM186.424 117.24H187.448V122.792H186.424V117.24ZM185.752 110.248H197.816V111.032H185.752V110.248ZM191.208 110.456H192.264V116.616H191.208V110.456ZM185.048 112.12H198.552V115.544H197.48V112.904H186.088V115.544H185.048V112.12ZM186.44 115.784C187.464 115.672 188.84 115.464 190.264 115.24L190.296 115.944C189.048 116.2 187.832 116.44 186.776 116.632L186.44 115.784ZM186.824 113.88L187.16 113.272C188.216 113.464 189.592 113.832 190.312 114.152L189.992 114.824C189.272 114.504 187.912 114.088 186.824 113.88ZM196.296 113.208L196.792 113.848C195.864 114.248 194.536 114.584 193.592 114.776L193.192 114.216C194.136 113.992 195.512 113.512 196.296 113.208ZM193 115.832L193.272 115.16C194.52 115.304 196.136 115.64 197.016 115.944L196.776 116.712C195.896 116.392 194.264 116.024 193 115.832ZM208.744 112.2L209.416 111.592C210.968 112.136 212.984 113 214.056 113.656L213.336 114.344C212.328 113.72 210.312 112.792 208.744 112.2ZM207.192 113.608H215.416V114.456H208.168V121.864H207.192V113.608ZM215.032 113.608H216.024V120.808C216.024 121.352 215.896 121.608 215.496 121.768C215.112 121.912 214.44 121.912 213.352 121.912C213.304 121.656 213.16 121.304 213.032 121.064C213.848 121.096 214.536 121.08 214.76 121.08C214.968 121.064 215.032 121 215.032 120.808V113.608ZM207.192 110.28H215.24V111.128H207.192V110.28ZM207.768 115.96H215.432V116.792H207.768V115.96ZM207.768 118.344H215.432V119.192H207.768V118.344ZM211.064 113.944H212.008V121.832H211.064V113.944ZM214.888 110.28H215.144L215.352 110.216L216.04 110.744C214.968 111.736 213.336 112.712 211.896 113.304C211.752 113.096 211.48 112.808 211.304 112.664C212.648 112.152 214.136 111.24 214.888 110.488V110.28ZM202.776 110.088L203.576 109.624C204.312 110.408 205.192 111.432 205.624 112.072L204.792 112.648C204.36 111.992 203.48 110.872 202.776 110.088ZM202.168 113.288H205.688V114.2H202.168V113.288ZM204.952 120.68C205.944 122.776 208.088 123.064 211.304 123.064C212.984 123.064 215.272 123 216.888 122.856C216.712 123.096 216.568 123.608 216.52 123.896C215.048 123.992 213.048 124.024 211.304 124.024C207.544 124.024 205.432 123.592 204.232 121.032L204.952 120.68ZM205.272 117.288H205.528L205.72 117.272L206.248 117.464C205.704 120.872 204.36 123.096 202.6 124.296C202.44 124.072 202.088 123.704 201.88 123.56C203.576 122.472 204.808 120.44 205.272 117.48V117.288ZM202.376 118.392V117.56L202.92 117.288H205.64V118.184H203.32C202.904 118.184 202.488 118.28 202.376 118.392ZM202.376 118.392C202.296 118.136 202.072 117.624 201.96 117.4C202.184 117.336 202.44 117.24 202.728 116.92C203.24 116.424 204.824 114.232 205.368 113.4V113.352L205.72 113.208L206.44 113.544C205.656 114.632 204.152 116.68 203.208 117.704C203.208 117.704 202.376 118.12 202.376 118.392ZM228.216 121.496H233.016V122.52H228.216V121.496ZM227.784 110.984H233.48V123.64H232.408V111.992H228.824V123.8H227.784V110.984ZM223.096 112.264H224.184V115.496C224.184 118.216 223.64 121.848 220.312 124.216C220.168 123.992 219.784 123.576 219.56 123.416C222.712 121.176 223.096 117.992 223.096 115.48V112.264ZM221.384 111.768H226.776V112.76H221.384V111.768ZM219.72 116.072H227.256V117.112H219.72V116.072ZM223.816 118.152C224.424 118.728 226.648 121.192 227.16 121.8L226.424 122.712C225.768 121.752 223.88 119.544 223.144 118.776L223.816 118.152ZM221.576 109.576L222.632 109.784C222.168 111.944 221.4 113.976 220.44 115.352C220.248 115.176 219.8 114.888 219.56 114.728C220.52 113.496 221.192 111.56 221.576 109.576ZM238.088 114.424H242.936V115.288H238.088V114.424ZM238.088 116.52H242.936V117.384H238.088V116.52ZM237.368 112.328H243.448V113.224H237.368V112.328ZM238.552 118.632H242.888V123.272H238.552V122.36H241.912V119.544H238.552V118.632ZM238.072 118.632H239.032V124.04H238.072V118.632ZM239.192 109.96L240.024 109.528C240.504 110.168 241.016 111.016 241.272 111.576L240.392 112.088C240.136 111.512 239.624 110.616 239.192 109.96ZM243.768 110.968H251.944V112.008H243.768V110.968ZM248.344 111.272H249.4V122.584C249.4 123.336 249.224 123.72 248.664 123.896C248.104 124.088 247.112 124.088 245.56 124.088C245.496 123.784 245.304 123.272 245.112 122.968C246.36 123.016 247.544 123.016 247.896 123C248.216 122.984 248.344 122.888 248.344 122.584V111.272ZM261.592 114.664H262.696V124.248H261.592V114.664ZM257.8 117.336V118.824H266.712V117.336H257.8ZM257.8 115.048V116.504H266.712V115.048H257.8ZM256.76 114.168H267.8V119.704H256.76V114.168ZM255.128 121H269.288V121.96H255.128V121ZM257.336 110.968V112.584H260.536V110.968H257.336ZM256.36 110.216H261.56V113.336H256.36V110.216ZM263.88 110.968V112.584H267.128V110.968H263.88ZM262.904 110.216H268.152V113.336H262.904V110.216ZM279.096 111.752H286.616V112.712H279.096V111.752ZM278.76 114.92H287.08V115.896H278.76V114.92ZM280.648 109.592H281.608V115.448H280.648V109.592ZM284.232 109.592H285.208V115.448H284.232V109.592ZM279.768 117.256H286.12V124.2H285.112V118.168H280.744V124.248H279.768V117.256ZM280.312 119.928H285.528V120.824H280.312V119.928ZM280.312 122.616H285.464V123.512H280.312V122.616ZM273.592 113.688H277.832V114.616H273.592V113.688ZM272.728 116.472H278.328V117.416H272.728V116.472ZM273.048 118.504L273.768 118.312C274.072 119.256 274.328 120.504 274.424 121.304L273.656 121.528C273.592 120.696 273.336 119.464 273.048 118.504ZM272.552 122.728C273.96 122.456 276.168 121.976 278.312 121.512L278.376 122.376C276.392 122.856 274.296 123.352 272.792 123.704L272.552 122.728ZM277.32 118.12L278.136 118.392C277.848 119.384 277.512 120.584 277.224 121.336L276.584 121.096C276.84 120.296 277.176 119 277.32 118.12ZM275.208 114.104H276.088V122.632L275.208 122.792V114.104ZM275.608 109.512L276.472 109.88C275.592 111.704 274.168 113.48 272.792 114.616C272.728 114.376 272.472 113.8 272.312 113.544C273.576 112.6 274.856 111.096 275.608 109.512ZM275.208 111.064L275.672 110.28C276.808 111.016 278.008 111.992 278.76 112.728L278.232 113.592C277.528 112.824 276.296 111.8 275.208 111.064ZM291.816 109.96L292.728 109.624C293.144 110.296 293.576 111.176 293.8 111.72L292.84 112.12C292.648 111.528 292.2 110.632 291.816 109.96ZM295.608 119.08H304.744V120.056H295.608V119.08ZM299 110.984V113.88H302.312V110.984H299ZM298.04 110.056H303.32V114.792H298.04V110.056ZM296.424 111.096H297.368V116.92H296.424V111.096ZM296.936 115.976H303.864V119.496H302.856V116.92H296.936V115.976ZM299.48 116.536H300.472V118.408C300.472 120.472 300.008 122.776 295.928 124.28C295.784 124.056 295.48 123.688 295.272 123.512C299.096 122.152 299.48 120.12 299.48 118.392V116.536ZM290.616 114.424H295.224V115.288H290.616V114.424ZM290.616 116.552H295.224V117.432H290.616V116.552ZM290.024 112.248H295.72V113.16H290.024V112.248ZM291.08 118.696H295.192V123.336H291.08V122.44H294.264V119.608H291.08V118.696ZM290.6 118.696H291.512V124.088H290.6V118.696ZM300.104 121.384L300.744 120.728C302.072 121.56 303.896 122.744 304.84 123.464L304.184 124.248C303.256 123.496 301.464 122.264 300.104 121.384Z" fill="#444444"/>
<path d="M132.12 151.728H145.864V152.816H132.12V151.728ZM139.976 156.272L140.76 155.584C142.68 156.8 145.112 158.592 146.312 159.808L145.448 160.64C144.312 159.408 141.896 157.536 139.976 156.272ZM139.736 152.096L140.888 152.528C139.08 155.824 136.072 158.976 132.456 160.88C132.28 160.608 131.96 160.192 131.736 159.952C135.224 158.208 138.216 155.136 139.736 152.096ZM138.408 155.168L139.544 154.032V165.232H138.408V155.168ZM149.064 159.168C150.28 158.816 152.152 158.224 153.96 157.632L154.12 158.624C152.44 159.184 150.696 159.76 149.352 160.224L149.064 159.168ZM149.272 153.856H154.232V154.864H149.272V153.856ZM151.384 150.608H152.392V163.936C152.392 164.56 152.248 164.848 151.88 165.024C151.512 165.184 150.92 165.232 149.912 165.216C149.88 164.96 149.752 164.512 149.608 164.224C150.312 164.24 150.92 164.24 151.112 164.224C151.304 164.224 151.384 164.16 151.384 163.952V150.608ZM154.936 152.32H163.464V153.264H154.936V152.32ZM154.52 156.064H163.784V157.024H154.52V156.064ZM156.136 153.84L157.032 153.472C157.528 154.112 158.04 154.96 158.264 155.504L157.352 155.936C157.128 155.376 156.632 154.496 156.136 153.84ZM161.224 153.504L162.248 153.808C161.784 154.72 161.224 155.76 160.744 156.464L159.88 156.176C160.344 155.456 160.92 154.288 161.224 153.504ZM154.312 158.848H163.96V159.792H154.312V158.848ZM161.592 157.888L162.648 158.08C161.928 162.304 159.864 164.336 154.84 165.216C154.76 164.928 154.536 164.544 154.344 164.304C159.096 163.6 160.936 161.744 161.592 157.888ZM158.2 150.72L159.32 150.528C159.72 151.168 160.12 152.032 160.28 152.608L159.096 152.864C158.968 152.288 158.568 151.392 158.2 150.72ZM155.288 161.68C156.216 160.512 157.352 158.688 157.992 157.2L159 157.408C158.328 158.928 157.208 160.72 156.392 161.792L155.288 161.68ZM155.288 161.68L156.024 161.024C158.552 161.872 161.864 163.328 163.656 164.448L162.872 165.2C161.24 164.128 157.912 162.592 155.288 161.68ZM167.464 151.264H171.464V152.288H168.488V165.248H167.464V151.264ZM171.24 151.264H171.432L171.608 151.216L172.344 151.68C171.816 152.992 171.128 154.56 170.52 155.872C171.848 157.312 172.136 158.464 172.136 159.504C172.136 160.336 171.928 161.04 171.448 161.376C171.208 161.52 170.872 161.632 170.52 161.68C170.072 161.712 169.528 161.712 169.064 161.68C169.048 161.392 168.936 160.976 168.744 160.672C169.272 160.72 169.752 160.736 170.088 160.72C170.36 160.704 170.568 160.656 170.744 160.56C171.032 160.368 171.144 159.904 171.144 159.408C171.128 158.48 170.776 157.376 169.448 156C170.12 154.528 170.84 152.656 171.24 151.568V151.264ZM173.8 159.008H180.04V159.968H173.8V159.008ZM173.8 163.104H180.12V164.112H173.8V163.104ZM176.184 151.76L177.384 151.872C177.128 153.088 176.824 154.592 176.552 155.504L175.624 155.36C175.848 154.4 176.104 152.832 176.184 151.76ZM173.304 154.928H180.584V165.232H179.528V155.888H174.328V165.264H173.304V154.928ZM172.76 151.344H181.32V152.352H172.76V151.344ZM187.144 153.744H198.2V154.784H187.144V153.744ZM186.424 158.432H197.64V159.456H186.424V158.432ZM184.696 163.696H198.952V164.736H184.696V163.696ZM191.272 150.592H192.376V164.208H191.272V150.592ZM187.704 150.864L188.792 151.104C188.088 153.584 186.968 155.936 185.688 157.472C185.48 157.296 184.984 156.976 184.728 156.832C186.04 155.392 187.08 153.168 187.704 150.864ZM202.552 152.88H216.344V153.92H202.552V152.88ZM208.792 150.608H209.912V165.248H208.792V150.608ZM208.92 157.68L209.832 158.048C208.264 160.768 205.464 163.248 202.776 164.512C202.6 164.224 202.264 163.824 202.024 163.6C204.68 162.496 207.48 160.128 208.92 157.68ZM209.848 157.696C211.272 160.192 214.024 162.544 216.792 163.6C216.52 163.824 216.168 164.256 215.992 164.56C213.24 163.328 210.488 160.816 208.952 158.08L209.848 157.696ZM204.728 156.8L205.448 156.16C206.2 156.8 207.192 157.728 207.688 158.304L206.936 159.024C206.456 158.448 205.496 157.488 204.728 156.8ZM205.4 154.336L206.456 154.528C205.88 156.864 204.76 158.752 203.288 159.984C203.112 159.792 202.696 159.456 202.44 159.296C203.912 158.192 204.92 156.432 205.4 154.336ZM212.44 156.832L213.16 156.208C214.248 157.04 215.688 158.256 216.408 158.992L215.656 159.728C214.968 158.96 213.544 157.728 212.44 156.832ZM212.984 154.336L214.024 154.512C213.608 156.544 212.744 158.224 211.592 159.344C211.4 159.184 210.952 158.88 210.68 158.736C211.864 157.744 212.632 156.176 212.984 154.336ZM222.152 160.208H231.832V160.96H222.152V160.208ZM222.184 158.24H232.44V162.944H222.184V162.144H231.384V159.04H222.184V158.24ZM226.376 158.624H227.416V163.52C227.416 164.048 227.608 164.16 228.632 164.16C229.128 164.16 231.672 164.16 232.312 164.16C233.176 164.16 233.32 163.888 233.4 162.224C233.64 162.384 234.04 162.544 234.344 162.592C234.184 164.544 233.848 165.04 232.376 165.04C231.976 165.04 228.984 165.04 228.6 165.04C226.872 165.04 226.376 164.752 226.376 163.504V158.624ZM221.624 158.24H222.648V163.792H221.624V158.24ZM220.952 151.248H233.016V152.032H220.952V151.248ZM226.408 151.456H227.464V157.616H226.408V151.456ZM220.248 153.12H233.752V156.544H232.68V153.904H221.288V156.544H220.248V153.12ZM221.64 156.784C222.664 156.672 224.04 156.464 225.464 156.24L225.496 156.944C224.248 157.2 223.032 157.44 221.976 157.632L221.64 156.784ZM222.024 154.88L222.36 154.272C223.416 154.464 224.792 154.832 225.512 155.152L225.192 155.824C224.472 155.504 223.112 155.088 222.024 154.88ZM231.496 154.208L231.992 154.848C231.064 155.248 229.736 155.584 228.792 155.776L228.392 155.216C229.336 154.992 230.712 154.512 231.496 154.208ZM228.2 156.832L228.472 156.16C229.72 156.304 231.336 156.64 232.216 156.944L231.976 157.712C231.096 157.392 229.464 157.024 228.2 156.832Z" fill="#444444"/>
<path d="M132.12 192.728H145.864V193.816H132.12V192.728ZM139.976 197.272L140.76 196.584C142.68 197.8 145.112 199.592 146.312 200.808L145.448 201.64C144.312 200.408 141.896 198.536 139.976 197.272ZM139.736 193.096L140.888 193.528C139.08 196.824 136.072 199.976 132.456 201.88C132.28 201.608 131.96 201.192 131.736 200.952C135.224 199.208 138.216 196.136 139.736 193.096ZM138.408 196.168L139.544 195.032V206.232H138.408V196.168ZM156.136 195.096V196.456H161.656V195.096H156.136ZM156.136 192.952V194.312H161.656V192.952H156.136ZM155.144 192.12H162.68V197.304H155.144V192.12ZM154.424 198.536H163.576V199.448H154.424V198.536ZM158.376 198.968H159.384V205.512L158.376 205.112V198.968ZM156.12 201.928C156.952 204.632 158.712 205.048 161 205.048C161.368 205.048 163.56 205.048 164.088 205.048C163.944 205.272 163.8 205.736 163.768 206.008H160.952C158.264 206.008 156.424 205.416 155.448 202.2L156.12 201.928ZM159.064 201.416H162.792V202.312H159.064V201.416ZM155.496 200.264L156.472 200.376C156.152 203.016 155.32 204.968 153.864 206.264C153.704 206.088 153.288 205.768 153.064 205.608C154.504 204.472 155.24 202.648 155.496 200.264ZM149.064 200.168C150.296 199.832 152.136 199.224 153.928 198.664L154.088 199.64C152.44 200.2 150.696 200.776 149.352 201.224L149.064 200.168ZM149.256 194.856H154.088V195.864H149.256V194.856ZM151.288 191.608H152.28V204.888C152.28 205.512 152.136 205.8 151.752 205.976C151.4 206.136 150.792 206.184 149.784 206.168C149.752 205.912 149.608 205.464 149.464 205.176C150.184 205.192 150.808 205.192 151 205.176C151.208 205.176 151.288 205.112 151.288 204.888V191.608ZM170.568 191.64L171.592 191.944C170.536 194.664 168.888 197.336 167.16 199.128C167.048 198.888 166.744 198.328 166.536 198.088C168.136 196.52 169.656 194.088 170.568 191.64ZM168.856 195.72L169.88 194.68L169.912 194.696V206.232H168.856V195.72ZM171.528 195.064H181.336V196.104H171.528V195.064ZM171.128 200.184H181.528V201.24H171.128V200.184ZM173.64 191.768H174.696V200.76H173.64V191.768ZM177.976 191.768H179.016V200.776H177.976V191.768ZM173.96 202.184L174.984 202.504C174.2 203.88 173 205.304 171.928 206.216C171.736 206.04 171.32 205.704 171.064 205.544C172.168 204.696 173.272 203.432 173.96 202.184ZM177.624 202.712L178.456 202.216C179.576 203.288 180.776 204.728 181.336 205.688L180.44 206.28C179.896 205.288 178.696 203.784 177.624 202.712ZM192.12 192.328H198.296V199.288H192.12V198.344H197.256V193.272H192.12V192.328ZM192.024 195.32H197.736V196.232H192.024V195.32ZM194.824 198.728C195.528 201.592 197.016 204.072 199.208 205.16C198.968 205.368 198.616 205.784 198.456 206.072C196.168 204.776 194.68 202.104 193.928 198.904L194.824 198.728ZM198.264 199.864L198.984 200.616C198.12 201.368 196.936 202.136 196.056 202.664L195.464 201.96C196.312 201.448 197.56 200.552 198.264 199.864ZM191.32 206.296L191.224 205.352L191.72 204.92L195.384 203.896C195.384 204.184 195.432 204.6 195.48 204.84C192.072 205.896 191.592 206.088 191.32 206.296ZM191.32 206.296C191.256 206.04 191.064 205.592 190.904 205.352C191.176 205.24 191.56 204.984 191.56 204.376V192.328H192.6V205.352C192.6 205.352 191.32 205.928 191.32 206.296ZM185.608 195.688H189.912V196.616H185.608V195.688ZM184.76 198.472H190.472V199.432H184.76V198.472ZM185.192 200.504L185.96 200.312C186.296 201.256 186.6 202.504 186.696 203.32L185.864 203.544C185.784 202.712 185.496 201.464 185.192 200.504ZM184.6 204.696C186.04 204.408 188.328 203.928 190.568 203.432L190.648 204.36C188.616 204.84 186.456 205.352 184.888 205.72L184.6 204.696ZM189.496 200.088L190.344 200.344C190.04 201.336 189.672 202.536 189.352 203.304L188.68 203.064C188.952 202.264 189.32 200.952 189.496 200.088ZM187.256 196.04H188.216V204.664L187.256 204.808V196.04ZM187.832 191.64L188.728 191.944C187.816 193.672 186.312 195.336 184.856 196.408C184.776 196.184 184.504 195.672 184.328 195.432C185.672 194.52 187.032 193.128 187.832 191.64ZM187.464 193L188.12 192.328C189.176 193.096 190.312 194.088 190.984 194.824L190.312 195.576C189.64 194.824 188.456 193.768 187.464 193ZM208.328 192.568H216.2V193.608H208.328V192.568ZM213.112 197.304H214.2V204.84C214.2 205.544 214.024 205.88 213.512 206.056C213 206.216 212.088 206.216 210.504 206.216C210.456 205.928 210.312 205.48 210.152 205.176C211.32 205.208 212.408 205.208 212.696 205.192C213 205.176 213.112 205.096 213.112 204.84V197.304ZM207.624 196.984H216.664V198.008H207.624V196.984ZM204.488 198.104L205.432 197.176L205.56 197.224V206.312H204.488V198.104ZM206.344 195L207.368 195.384C206.12 197.4 204.248 199.432 202.584 200.776C202.424 200.552 202.04 200.088 201.816 199.88C203.48 198.696 205.24 196.84 206.344 195ZM205.688 191.576L206.728 192.008C205.672 193.384 204.04 194.92 202.616 195.944C202.472 195.704 202.168 195.288 201.976 195.096C203.32 194.184 204.872 192.744 205.688 191.576ZM227.144 192.36H233.704V193.256H227.144V192.36ZM227.096 194.6H233.032V195.416H227.096V194.6ZM225.544 199H234.12V199.944H225.544V199ZM226.712 192.36H227.752V199.592H226.712V192.36ZM232.84 200.376L233.656 201.048C232.84 201.784 231.816 202.6 231.048 203.112L230.44 202.568C231.192 202.008 232.248 201.048 232.84 200.376ZM229.288 199.528C230.232 201.928 232.152 204.184 234.328 205.144C234.088 205.352 233.784 205.736 233.608 206.024C231.368 204.872 229.464 202.44 228.424 199.784L229.288 199.528ZM227.16 196.76H233.144V197.592H227.16V196.76ZM226.328 206.36L226.264 205.464L226.712 205.048L230.04 203.928C230.04 204.2 230.088 204.6 230.136 204.808C227.048 205.944 226.6 206.152 226.328 206.36ZM222.104 191.624H223.032V206.264H222.104V191.624ZM220.104 194.664H224.808V195.624H220.952V202.984H220.104V194.664ZM224.312 194.664H225.16V201.752C225.16 202.168 225.096 202.472 224.824 202.648C224.552 202.808 224.184 202.84 223.624 202.84C223.592 202.568 223.464 202.152 223.32 201.896C223.72 201.912 224.056 201.912 224.168 201.912C224.28 201.896 224.312 201.864 224.312 201.736V194.664ZM226.328 206.36C226.248 206.088 225.992 205.608 225.8 205.368C226.008 205.224 226.312 204.904 226.312 204.264V199.576H227.32V205.288C227.32 205.288 226.328 205.976 226.328 206.36ZM240.008 200.104H249.32V201.112H240.008V200.104ZM240.104 195.752H249.96V201.992H248.888V196.744H240.104V195.752ZM248.568 191.64L249.448 192.44C246.936 193.208 243.08 193.816 239.752 194.2C239.704 193.944 239.576 193.544 239.448 193.32C242.696 192.936 246.472 192.312 248.568 191.64ZM239.448 193.32H240.536V198.248C240.536 200.712 240.2 204.088 238.008 206.296C237.848 206.088 237.432 205.704 237.192 205.56C239.24 203.496 239.448 200.536 239.448 198.232V193.32ZM263.08 191.624H264.232C264.2 199.128 265.784 205.16 267.848 205.16C268.312 205.16 268.504 204.312 268.6 202.152C268.84 202.392 269.256 202.648 269.56 202.76C269.352 205.464 268.936 206.264 267.752 206.264C264.6 206.264 263.16 199.32 263.08 191.624ZM265.24 192.328L265.864 191.656C266.872 192.088 268.072 192.808 268.68 193.352L268.024 194.104C267.432 193.544 266.248 192.792 265.24 192.328ZM267.416 196.472L268.472 196.728C267.064 201.048 264.632 204.232 261.224 206.248C261.064 206.024 260.632 205.608 260.408 205.4C263.784 203.608 266.136 200.536 267.416 196.472ZM255.32 194.184H269.144V195.24H255.32V194.184ZM255.224 204.024C256.952 203.688 259.672 203.128 262.28 202.584L262.376 203.592C259.912 204.136 257.288 204.712 255.432 205.112L255.224 204.024ZM257.272 197.688V200.632H260.68V197.688H257.272ZM256.264 196.744H261.736V201.576H256.264V196.744ZM279.928 196.376H286.024V197.368H279.928V196.376ZM279.944 200.264H286.056V201.256H279.944V200.264ZM279.928 204.168H286.04V205.16H279.928V204.168ZM279.384 192.552H286.568V206.12H285.496V193.576H280.424V206.152H279.384V192.552ZM272.648 195.048H278.664V196.072H272.648V195.048ZM275.288 191.592H276.328V206.232H275.288V191.592ZM275.24 195.672L275.976 195.912C275.384 198.504 274.136 201.624 272.856 203.224C272.744 202.936 272.472 202.52 272.28 202.28C273.48 200.824 274.728 198.024 275.24 195.672ZM276.232 197.496C276.68 197.928 278.344 199.848 278.728 200.312L278.04 201.192C277.608 200.44 276.216 198.632 275.672 198.008L276.232 197.496ZM295.72 199.96L296.312 199.768C296.648 200.328 297.048 201.08 297.224 201.496L296.616 201.784C296.424 201.304 296.056 200.536 295.72 199.96ZM297.896 201.752H298.728V206.008H297.896V201.752ZM293.624 201.992H294.376V203.512H296.36V204.216H293.624V201.992ZM295.992 201.752H296.808V203.176C296.808 204.36 296.52 205.448 294.52 206.152C294.424 205.96 294.168 205.656 293.976 205.496C295.768 204.952 295.992 204.056 295.992 203.16V201.752ZM291.384 194.36H295.96V195.128H291.384V194.36ZM298.728 194.36H303.448V195.128H298.728V194.36ZM303.032 192.296H304.072V204.872C304.072 205.496 303.96 205.848 303.544 206.04C303.144 206.216 302.456 206.232 301.48 206.232C301.416 205.944 301.288 205.448 301.128 205.16C301.864 205.176 302.536 205.176 302.76 205.16C302.968 205.16 303.032 205.08 303.032 204.872V192.296ZM291.464 192.296H296.616V197.16H291.464V196.36H295.608V193.096H291.464V192.296ZM303.544 192.296V193.096H299.144V196.36H303.544V197.16H298.12V192.296H303.544ZM290.808 192.296H291.848V206.28H290.808V192.296ZM293.256 199.736C293.208 199.576 293.112 199.16 293 198.968C293.176 198.936 293.352 198.84 293.528 198.68C293.704 198.504 294.376 197.784 294.744 197.064L295.48 197.432C294.952 198.184 294.344 198.856 293.816 199.272V199.288C293.816 199.288 293.256 199.544 293.256 199.736ZM293.256 199.736V199.192L293.688 198.968L295.848 198.872C295.768 199.064 295.672 199.336 295.624 199.48C293.8 199.592 293.432 199.656 293.256 199.736ZM293.176 201.624C293.144 201.448 293.016 201.08 292.936 200.872C293.176 200.856 293.464 200.68 293.8 200.424C294.152 200.168 295.368 199.128 296.184 198.056L296.824 198.488C295.848 199.56 294.776 200.536 293.72 201.192V201.224C293.72 201.224 293.176 201.432 293.176 201.624ZM293.176 201.624L293.16 201.064L293.576 200.824L296.504 200.6C296.52 200.776 296.568 201.048 296.616 201.192C293.8 201.464 293.4 201.528 293.176 201.624ZM300.104 199.976L300.68 199.752C301.032 200.328 301.432 201.064 301.64 201.496L301.016 201.784C300.824 201.32 300.424 200.536 300.104 199.976ZM297.656 199.752C297.608 199.576 297.496 199.176 297.4 198.968C297.592 198.952 297.752 198.856 297.928 198.696C298.104 198.52 298.776 197.8 299.16 197.08L299.88 197.448C299.368 198.184 298.76 198.872 298.216 199.288V199.304C298.216 199.304 297.656 199.544 297.656 199.752ZM297.656 199.752V199.192L298.072 198.968L300.248 198.872C300.168 199.064 300.072 199.336 300.04 199.496C298.2 199.608 297.848 199.656 297.656 199.752ZM297.576 201.64C297.544 201.464 297.432 201.096 297.336 200.888C297.592 200.856 297.864 200.696 298.2 200.424C298.568 200.184 299.768 199.112 300.6 198.056L301.24 198.488C300.264 199.56 299.176 200.536 298.12 201.208V201.24C298.12 201.24 297.576 201.448 297.576 201.64ZM297.576 201.64V201.064L297.992 200.824L300.92 200.6C300.936 200.776 300.984 201.048 301.016 201.208C298.216 201.464 297.816 201.544 297.576 201.64ZM298.456 203.512H300.808V204.216H298.456V203.512ZM300.36 201.992H301.144V204.712H300.36V201.992ZM310.952 199.896V201.064H319.208V199.896H310.952ZM310.952 201.784V202.968H319.208V201.784H310.952ZM310.952 198.008V199.16H319.208V198.008H310.952ZM309.912 197.256H320.28V203.704H309.912V197.256ZM316.552 204.456L317.288 203.848C319.032 204.376 320.92 205.064 322.072 205.576L321.112 206.2C320.072 205.688 318.312 205.016 316.552 204.456ZM312.6 203.864L313.576 204.312C312.28 205.064 310.264 205.8 308.664 206.232C308.504 206.024 308.12 205.608 307.88 205.416C309.512 205.064 311.448 204.488 312.6 203.864ZM314.44 192.696H321.048V193.544H314.44V192.696ZM314.728 191.56L315.688 191.768C315.256 193.096 314.488 194.376 313.672 195.208C313.496 195.048 313.096 194.776 312.856 194.648C313.672 193.88 314.344 192.728 314.728 191.56ZM316.664 193.192H317.672V193.736C317.672 194.952 317.176 196.408 312.664 197.128C312.568 196.872 312.28 196.504 312.088 196.296C316.296 195.72 316.664 194.552 316.664 193.704V193.192ZM317.512 194.2C318.312 195.24 320.168 195.976 322.36 196.168C322.136 196.376 321.864 196.776 321.736 197.048C319.464 196.712 317.624 195.784 316.744 194.392L317.512 194.2ZM308.136 192.568H311.944V193.432H308.136V192.568ZM307.784 195.08H312.36V195.96H307.784V195.08ZM320.712 192.696H320.888L321.064 192.648L321.784 192.888C321.384 193.704 320.888 194.616 320.44 195.176L319.592 194.888C319.96 194.36 320.424 193.544 320.712 192.856V192.696ZM326.024 196.424H330.536V197.288H326.024V196.424ZM326.024 198.52H330.552V199.384H326.024V198.52ZM325.368 194.328H331.16V195.224H325.368V194.328ZM326.44 200.632H330.536V205.272H326.44V204.36H329.64V201.544H326.44V200.632ZM326.008 200.632H326.872V206.04H326.008V200.632ZM327.096 191.96L327.864 191.528C328.312 192.168 328.808 193.016 329.064 193.576L328.232 194.088C328.024 193.512 327.512 192.616 327.096 191.96ZM331.128 198.392H336.616V199.4H331.128V198.392ZM337.208 192.52H338.264C338.2 199.24 338.152 204.648 339.112 204.872C339.208 204.904 339.336 203.896 339.4 202.712C339.576 202.968 339.88 203.32 340.056 203.464C339.896 205.72 339.416 206.216 338.696 205.96C337.048 205.448 337.208 199.752 337.208 192.52ZM333.384 193.16H334.392V206.248H333.384V193.16ZM331.304 192.52H337.688V193.544H331.304V192.52Z" fill="#444444"/>
<path d="M132.12 233.728H145.864V234.816H132.12V233.728ZM139.976 238.272L140.76 237.584C142.68 238.8 145.112 240.592 146.312 241.808L145.448 242.64C144.312 241.408 141.896 239.536 139.976 238.272ZM139.736 234.096L140.888 234.528C139.08 237.824 136.072 240.976 132.456 242.88C132.28 242.608 131.96 242.192 131.736 241.952C135.224 240.208 138.216 237.136 139.736 234.096ZM138.408 237.168L139.544 236.032V247.232H138.408V237.168ZM151.512 240L152.52 238.704V247.232H151.512V240ZM154.328 238.496L155 239.104C154.456 239.696 153.832 240.336 153.32 240.752L152.824 240.288C153.288 239.824 153.976 239.024 154.328 238.496ZM149.24 235.456H153.784V236.432H149.24V235.456ZM152.376 239.28C152.776 239.728 154.264 241.664 154.616 242.128L154.024 242.944C153.592 242.208 152.344 240.384 151.848 239.776L152.376 239.28ZM153.4 235.456H153.608L153.784 235.408L154.328 235.824C153.352 238.576 151.384 241.328 149.64 242.928C149.544 242.64 149.288 242.144 149.112 241.968C150.776 240.56 152.6 238 153.4 235.696V235.456ZM150.872 233.056L151.704 232.672C152.168 233.344 152.696 234.256 152.968 234.848L152.104 235.328C151.864 234.72 151.32 233.776 150.872 233.056ZM155.944 234.992H163.08V236H155.944V234.992ZM162.712 234.992H162.888L163.048 234.96L163.816 235.136C163.496 236.256 163.112 237.536 162.776 238.336L161.864 238.112C162.152 237.376 162.488 236.144 162.712 235.152V234.992ZM158.856 232.592H159.864V239.456H158.856V232.592ZM155.4 234.992H156.392V239.184C156.392 241.552 156.12 244.896 154.328 247.136C154.168 246.928 153.768 246.576 153.544 246.448C155.224 244.352 155.4 241.376 155.4 239.168V234.992ZM156.056 238.896H162.312V239.856H156.056V238.896ZM162.056 238.896H162.248L162.456 238.848L163.096 239.104C162.04 243.456 159.24 246.016 156.056 247.248C155.928 246.992 155.688 246.576 155.464 246.368C158.44 245.36 161.128 242.864 162.056 239.088V238.896ZM157.416 239.44C158.456 242.752 160.712 245.28 164.04 246.288C163.8 246.496 163.512 246.912 163.352 247.184C159.944 246.016 157.688 243.344 156.536 239.664L157.416 239.44ZM169.352 242.208H179.032V242.96H169.352V242.208ZM169.384 240.24H179.64V244.944H169.384V244.144H178.584V241.04H169.384V240.24ZM173.576 240.624H174.616V245.52C174.616 246.048 174.808 246.16 175.832 246.16C176.328 246.16 178.872 246.16 179.512 246.16C180.376 246.16 180.52 245.888 180.6 244.224C180.84 244.384 181.24 244.544 181.544 244.592C181.384 246.544 181.048 247.04 179.576 247.04C179.176 247.04 176.184 247.04 175.8 247.04C174.072 247.04 173.576 246.752 173.576 245.504V240.624ZM168.824 240.24H169.848V245.792H168.824V240.24ZM168.152 233.248H180.216V234.032H168.152V233.248ZM173.608 233.456H174.664V239.616H173.608V233.456ZM167.448 235.12H180.952V238.544H179.88V235.904H168.488V238.544H167.448V235.12ZM168.84 238.784C169.864 238.672 171.24 238.464 172.664 238.24L172.696 238.944C171.448 239.2 170.232 239.44 169.176 239.632L168.84 238.784ZM169.224 236.88L169.56 236.272C170.616 236.464 171.992 236.832 172.712 237.152L172.392 237.824C171.672 237.504 170.312 237.088 169.224 236.88ZM178.696 236.208L179.192 236.848C178.264 237.248 176.936 237.584 175.992 237.776L175.592 237.216C176.536 236.992 177.912 236.512 178.696 236.208ZM175.4 238.832L175.672 238.16C176.92 238.304 178.536 238.64 179.416 238.944L179.176 239.712C178.296 239.392 176.664 239.024 175.4 238.832ZM197.544 232.704L198.264 233.552C196.44 234.24 193.56 234.72 191.16 235.008C191.112 234.768 190.984 234.384 190.872 234.144C193.224 233.824 196.008 233.312 197.544 232.704ZM190.808 237.536H199.096V238.56H190.808V237.536ZM191.4 241.328H198.232V247.184H197.208V242.32H192.408V247.248H191.4V241.328ZM191.928 245.616H197.736V246.592H191.928V245.616ZM194.312 233.968H195.32V241.904H194.312V233.968ZM185.128 237.424H189.768V238.288H185.128V237.424ZM185.128 239.52H189.768V240.384H185.128V239.52ZM184.472 235.328H190.312V236.224H184.472V235.328ZM185.592 241.632H189.88V246.272H185.592V245.36H188.904V242.544H185.592V241.632ZM185.128 241.632H186.072V247.04H185.128V241.632ZM186.296 232.96L187.112 232.528C187.608 233.168 188.12 234.016 188.376 234.576L187.496 235.088C187.256 234.512 186.728 233.616 186.296 232.96ZM208.472 240.288H215.976V247.168H214.904V241.216H209.48V247.248H208.472V240.288ZM209 242.928H215.288V243.808H209V242.928ZM208.968 245.6H215.336V246.496H208.968V245.6ZM201.864 241.136C203.272 240.768 205.384 240.144 207.432 239.52L207.56 240.528C205.688 241.12 203.688 241.744 202.2 242.192L201.864 241.136ZM202.12 235.872H207.384V236.896H202.12V235.872ZM204.456 232.592H205.512V245.936C205.512 246.576 205.352 246.864 204.952 247.04C204.552 247.216 203.928 247.248 202.872 247.232C202.824 246.976 202.664 246.528 202.52 246.24C203.272 246.256 203.944 246.256 204.152 246.24C204.36 246.24 204.456 246.176 204.456 245.936V232.592ZM208.472 232.656H209.528V237.088C209.528 237.696 209.704 237.92 210.408 237.92C211.032 237.92 214.12 237.92 214.744 237.92C215.256 237.92 216.104 237.888 216.472 237.824C216.504 238.112 216.552 238.512 216.6 238.752C216.296 238.832 215.544 238.848 214.792 238.848C214.152 238.848 210.824 238.848 210.424 238.848C208.936 238.848 208.472 238.384 208.472 237.056V232.656ZM209.032 234.624H216.04V235.568H209.032V234.624ZM219.896 243.152H234.008V244.032H219.896V243.152ZM223.944 234.096H233.896V234.896H223.944V234.096ZM229.544 242.24H230.584V246C230.584 246.576 230.456 246.848 229.96 247.024C229.496 247.184 228.68 247.168 227.336 247.168C227.288 246.896 227.112 246.512 226.968 246.24C228.04 246.272 228.936 246.256 229.208 246.256C229.464 246.24 229.544 246.176 229.544 245.968V242.24ZM222.92 244.688L223.672 244.096C224.488 244.656 225.448 245.52 225.896 246.128L225.096 246.784C224.68 246.176 223.752 245.28 222.92 244.688ZM225.912 232.848L226.792 232.576C227.144 232.992 227.528 233.584 227.672 233.984L226.76 234.32C226.616 233.888 226.264 233.296 225.912 232.848ZM225.944 237.728V238.512H231.672V237.728H225.944ZM225.944 239.12V239.92H231.672V239.12H225.944ZM225.944 236.368V237.12H231.672V236.368H225.944ZM225.016 235.744H232.632V240.544H225.016V235.744ZM228.344 234.352L229.416 234.48C229.144 235.088 228.856 235.664 228.6 236.096L227.736 235.936C227.944 235.472 228.216 234.8 228.344 234.352ZM231.016 232.608L232.024 232.832C231.64 233.456 231.208 234.08 230.856 234.512L230.008 234.272C230.344 233.808 230.776 233.088 231.016 232.608ZM220.92 232.864L221.8 232.608C222.232 233.104 222.696 233.744 222.936 234.176L222.008 234.48C221.784 234.032 221.304 233.344 220.92 232.864ZM220.088 234.8H223.272V235.68H220.088V234.8ZM222.952 239.376C223.72 240.992 225.208 241.2 228.104 241.2C230.04 241.2 232.6 241.152 234.36 240.992C234.2 241.216 234.088 241.664 234.024 241.952C232.408 242.032 230.088 242.08 228.136 242.08C224.744 242.08 223.24 241.744 222.344 239.712L222.952 239.376ZM223.112 237.424H223.432L223.608 237.376L224.024 237.664C223.384 239.872 222.008 241.52 220.504 242.432C220.408 242.208 220.104 241.824 219.912 241.664C221.336 240.864 222.584 239.408 223.112 237.584V237.424ZM220.376 238.528V237.68L220.936 237.424H223.368L223.352 238.304H221.304C220.904 238.304 220.488 238.416 220.376 238.528ZM220.376 238.528C220.312 238.288 220.104 237.808 219.992 237.6C220.184 237.552 220.44 237.44 220.728 237.2C221.176 236.816 222.552 235.44 223.016 234.864V234.816L223.368 234.688L224.024 235.072C223.32 235.84 222.008 237.136 221.144 237.888C221.144 237.888 220.376 238.256 220.376 238.528ZM237.208 241.168C238.344 240.8 240.024 240.176 241.656 239.552L241.832 240.512C240.328 241.104 238.744 241.728 237.512 242.192L237.208 241.168ZM237.352 235.856H241.752V236.864H237.352V235.856ZM239.192 232.592H240.216V245.968C240.216 246.544 240.088 246.832 239.752 246.992C239.432 247.152 238.92 247.184 238.12 247.184C238.072 246.928 237.928 246.496 237.8 246.224C238.36 246.24 238.824 246.224 238.968 246.224C239.144 246.224 239.192 246.176 239.192 245.984V232.592ZM244.936 234.096V235.888H248.776V234.096H244.936ZM243.992 233.264H249.768V236.72H243.992V233.264ZM243.208 238.272V240.224H245.464V238.272H243.208ZM242.36 237.472H246.36V241.024H242.36V237.472ZM248.184 238.272V240.224H250.504V238.272H248.184ZM247.32 237.472H251.416V241.024H247.32V237.472ZM242.04 242.288H251.8V243.216H242.04V242.288ZM246.328 241.056H247.352V247.28H246.328V241.056ZM244.472 243.568L245.4 243.92C244.52 244.928 243.288 246.096 242.28 246.848C242.12 246.672 241.736 246.32 241.512 246.176C242.536 245.472 243.688 244.48 244.472 243.568ZM248.184 244.112L248.84 243.504C249.96 244.256 251.304 245.376 251.96 246.128L251.272 246.8C250.632 246.032 249.304 244.896 248.184 244.112ZM261.976 235.28H269.544V236.32H261.464L261.976 235.28ZM263.944 238.752H269.192V239.744H263.944V238.752ZM263.944 242.272H269.416V243.296H263.944V242.272ZM263.416 235.616H264.52V247.248H263.416V235.616ZM262.632 232.8L263.672 233.056C262.76 235.6 261.384 238.08 259.912 239.712C259.752 239.536 259.32 239.168 259.08 238.992C260.536 237.488 261.832 235.152 262.632 232.8ZM258.856 232.656L259.88 232.976C258.824 235.68 257.192 238.384 255.448 240.16C255.336 239.92 255.016 239.344 254.808 239.104C256.424 237.536 257.928 235.104 258.856 232.656ZM257.128 236.72L258.184 235.648L258.216 235.68V247.232H257.128V236.72ZM271.864 246L275.864 234.288H277.32L281.336 246H279.944L277.816 239.376C277.384 238.032 277.016 236.768 276.616 235.392H276.552C276.168 236.784 275.784 238.032 275.352 239.376L273.208 246H271.864ZM273.896 242.32V241.264H279.256V242.32H273.896ZM286.152 246V235.424H282.568V234.288H291.064V235.424H287.48V246H286.152ZM294.804 246V234.288H296.436L298.724 240.704C299.012 241.52 299.3 242.352 299.588 243.184H299.652C299.956 242.352 300.212 241.52 300.484 240.704L302.772 234.288H304.404V246H303.156V239.248C303.156 238.24 303.252 236.864 303.332 235.856H303.268L302.34 238.512L300.052 244.8H299.124L296.82 238.512L295.892 235.856H295.828C295.908 236.864 296.004 238.24 296.004 239.248V246H294.804ZM316.511 232.624H317.663C317.631 240.128 319.215 246.16 321.279 246.16C321.743 246.16 321.935 245.312 322.031 243.152C322.271 243.392 322.687 243.648 322.991 243.76C322.783 246.464 322.367 247.264 321.183 247.264C318.031 247.264 316.591 240.32 316.511 232.624ZM318.671 233.328L319.295 232.656C320.303 233.088 321.503 233.808 322.111 234.352L321.455 235.104C320.863 234.544 319.679 233.792 318.671 233.328ZM320.847 237.472L321.903 237.728C320.495 242.048 318.063 245.232 314.655 247.248C314.495 247.024 314.063 246.608 313.839 246.4C317.215 244.608 319.567 241.536 320.847 237.472ZM308.751 235.184H322.575V236.24H308.751V235.184ZM308.655 245.024C310.383 244.688 313.103 244.128 315.711 243.584L315.807 244.592C313.343 245.136 310.719 245.712 308.863 246.112L308.655 245.024ZM310.703 238.688V241.632H314.111V238.688H310.703ZM309.695 237.744H315.167V242.576H309.695V237.744ZM337.391 234.848L338.223 235.088C337.903 236.064 337.535 237.232 337.199 237.952L336.543 237.728C336.831 236.96 337.231 235.696 337.391 234.848ZM334.047 235.04L334.719 234.816C335.135 235.52 335.503 236.496 335.631 237.12L334.911 237.392C334.783 236.752 334.431 235.776 334.047 235.04ZM332.031 233.376H339.567V234.32H333.007V247.28H332.031V233.376ZM339.199 233.376H340.175V246C340.175 246.624 340.063 246.912 339.663 247.088C339.279 247.248 338.639 247.264 337.663 247.248C337.615 247.008 337.487 246.56 337.343 246.288C338.063 246.32 338.719 246.304 338.927 246.304C339.135 246.288 339.199 246.224 339.199 246.016V233.376ZM333.439 237.552H338.831V238.416H333.439V237.552ZM333.631 240.176H338.607V241.04H333.631V240.176ZM335.215 238.704L335.983 238.4C336.255 238.88 336.591 239.52 336.735 239.92L335.935 240.272C335.807 239.84 335.503 239.184 335.215 238.704ZM329.887 238.928L330.671 238.672C331.119 239.68 331.583 240.976 331.775 241.744L330.959 242.08C330.783 241.28 330.319 239.936 329.887 238.928ZM328.303 242.944L329.087 242.784C329.295 243.872 329.487 245.264 329.535 246.192L328.703 246.384C328.671 245.456 328.495 244.032 328.303 242.944ZM326.639 242.848L327.487 242.992C327.311 244.368 326.991 245.872 326.671 246.88C326.479 246.768 326.079 246.624 325.855 246.56C326.223 245.568 326.463 244.144 326.639 242.848ZM326.207 238.512C326.159 238.304 325.999 237.824 325.887 237.568C326.143 237.504 326.415 237.168 326.751 236.672C327.087 236.208 328.191 234.352 328.847 232.608L329.775 233.008C328.943 234.8 327.903 236.672 326.847 237.952V237.968C326.847 237.968 326.207 238.304 326.207 238.512ZM326.207 238.512L326.191 237.76L326.687 237.44L329.439 237.2C329.391 237.456 329.359 237.824 329.359 238.016C326.847 238.32 326.447 238.4 326.207 238.512ZM326.303 242.112C326.271 241.904 326.111 241.424 325.999 241.168C326.303 241.088 326.655 240.672 327.135 240.08C327.631 239.488 329.247 237.184 330.271 234.992L331.135 235.488C329.935 237.712 328.431 239.952 326.959 241.552V241.584C326.959 241.584 326.303 241.888 326.303 242.112ZM326.303 242.112L326.271 241.344L326.783 240.992L331.087 240.4C331.055 240.64 331.055 241.008 331.071 241.216C327.103 241.84 326.591 241.952 326.303 242.112ZM330.047 242.624L330.783 242.384C331.167 243.376 331.551 244.656 331.727 245.488L330.959 245.76C330.799 244.912 330.399 243.616 330.047 242.624ZM334.239 240.592H335.135V242.736C335.135 243.152 335.199 243.28 335.535 243.28C335.839 243.28 337.359 243.28 337.663 243.28C337.935 243.28 338.383 243.28 338.639 243.216C338.655 243.456 338.687 243.824 338.719 244.032C338.511 244.096 338.079 244.096 337.679 244.096C337.343 244.096 335.711 244.096 335.471 244.096C334.479 244.096 334.239 243.744 334.239 242.72V240.592ZM351.263 245.68H356.591V246.624H351.263V245.68ZM352.063 234.256H356.319V235.184H352.063V234.256ZM350.863 241.488H357.087V247.184H356.063V242.416H351.855V247.232H350.863V241.488ZM355.935 234.256H356.127L356.335 234.208L357.007 234.496C355.759 238.416 352.799 241.056 349.791 242.336C349.663 242.096 349.375 241.712 349.167 241.52C351.983 240.432 354.863 237.84 355.935 234.448V234.256ZM352.383 232.576L353.407 232.832C352.687 235.008 351.519 237.04 350.175 238.368C350.015 238.176 349.583 237.84 349.327 237.664C350.655 236.464 351.759 234.576 352.383 232.576ZM351.999 234.88C352.927 237.184 355.087 239.984 358.367 241.264C358.143 241.456 357.839 241.872 357.679 242.16C354.399 240.704 352.287 237.776 351.311 235.504L351.999 234.88ZM344.303 239.696H345.215V245.504H344.303V239.696ZM345.247 234.224V237.184H348.431V234.224H345.247ZM344.287 233.28H349.423V238.128H344.287V233.28ZM346.543 237.632H347.535V244.976H346.543V237.632ZM343.455 245.408C345.007 245.088 347.391 244.528 349.679 243.984L349.791 244.944C347.599 245.488 345.327 246.032 343.663 246.448L343.455 245.408ZM346.879 240.528H349.567V241.488H346.879V240.528ZM368.751 233.328H374.927V240.288H368.751V239.344H373.887V234.272H368.751V233.328ZM368.655 236.32H374.367V237.232H368.655V236.32ZM371.455 239.728C372.159 242.592 373.647 245.072 375.839 246.16C375.599 246.368 375.247 246.784 375.087 247.072C372.799 245.776 371.311 243.104 370.559 239.904L371.455 239.728ZM374.895 240.864L375.615 241.616C374.751 242.368 373.567 243.136 372.687 243.664L372.095 242.96C372.943 242.448 374.191 241.552 374.895 240.864ZM367.951 247.296L367.855 246.352L368.351 245.92L372.015 244.896C372.015 245.184 372.063 245.6 372.111 245.84C368.703 246.896 368.223 247.088 367.951 247.296ZM367.951 247.296C367.887 247.04 367.695 246.592 367.535 246.352C367.807 246.24 368.191 245.984 368.191 245.376V233.328H369.231V246.352C369.231 246.352 367.951 246.928 367.951 247.296ZM362.239 236.688H366.543V237.616H362.239V236.688ZM361.391 239.472H367.103V240.432H361.391V239.472ZM361.823 241.504L362.591 241.312C362.927 242.256 363.231 243.504 363.327 244.32L362.495 244.544C362.415 243.712 362.127 242.464 361.823 241.504ZM361.231 245.696C362.671 245.408 364.959 244.928 367.199 244.432L367.279 245.36C365.247 245.84 363.087 246.352 361.519 246.72L361.231 245.696ZM366.127 241.088L366.975 241.344C366.671 242.336 366.303 243.536 365.983 244.304L365.311 244.064C365.583 243.264 365.951 241.952 366.127 241.088ZM363.887 237.04H364.847V245.664L363.887 245.808V237.04ZM364.463 232.64L365.359 232.944C364.447 234.672 362.943 236.336 361.487 237.408C361.407 237.184 361.135 236.672 360.959 236.432C362.303 235.52 363.663 234.128 364.463 232.64ZM364.095 234L364.751 233.328C365.807 234.096 366.943 235.088 367.615 235.824L366.943 236.576C366.271 235.824 365.087 234.768 364.095 234ZM384.959 233.568H392.831V234.608H384.959V233.568ZM389.743 238.304H390.831V245.84C390.831 246.544 390.655 246.88 390.143 247.056C389.631 247.216 388.719 247.216 387.135 247.216C387.087 246.928 386.943 246.48 386.783 246.176C387.951 246.208 389.039 246.208 389.327 246.192C389.631 246.176 389.743 246.096 389.743 245.84V238.304ZM384.255 237.984H393.295V239.008H384.255V237.984ZM381.119 239.104L382.063 238.176L382.191 238.224V247.312H381.119V239.104ZM382.975 236L383.999 236.384C382.751 238.4 380.879 240.432 379.215 241.776C379.055 241.552 378.671 241.088 378.447 240.88C380.111 239.696 381.871 237.84 382.975 236ZM382.319 232.576L383.359 233.008C382.303 234.384 380.671 235.92 379.247 236.944C379.103 236.704 378.799 236.288 378.607 236.096C379.951 235.184 381.503 233.744 382.319 232.576Z" fill="#444444"/>
<path d="M105 122.51L117.511 110" stroke="#444444" stroke-width="3" stroke-linecap="round"/>
<path d="M118.269 122.51L105.758 110" stroke="#444444" stroke-width="3" stroke-linecap="round"/>
<path d="M104 163.51L116.511 151" stroke="#444444" stroke-width="3" stroke-linecap="round"/>
<path d="M117.269 163.51L104.758 151" stroke="#444444" stroke-width="3" stroke-linecap="round"/>
<path d="M104 205.51L116.511 193" stroke="#444444" stroke-width="3" stroke-linecap="round"/>
<path d="M117.269 205.51L104.758 193" stroke="#444444" stroke-width="3" stroke-linecap="round"/>
<path d="M104 246.51L116.511 234" stroke="#444444" stroke-width="3" stroke-linecap="round"/>
<path d="M117.269 246.51L104.758 234" stroke="#444444" stroke-width="3" stroke-linecap="round"/>
<line x1="4.99951" y1="85" x2="467.001" y2="85" stroke="white" stroke-width="3"/>
<defs>
<filter id="filter0_d_1134_648" x="0" y="0" width="472" height="299" filterUnits="userSpaceOnUse" color-interpolation-filters="sRGB">
<feFlood flood-opacity="0" result="BackgroundImageFix"/>
<feColorMatrix in="SourceAlpha" type="matrix" values="0 0 0 0 0 0 0 0 0 0 0 0 0 0 0 0 0 0 127 0" result="hardAlpha"/>
<feOffset dy="2"/>
<feGaussianBlur stdDeviation="2.5"/>
<feComposite in2="hardAlpha" operator="out"/>
<feColorMatrix type="matrix" values="0 0 0 0 0 0 0 0 0 0 0 0 0 0 0 0 0 0 0.1 0"/>
<feBlend mode="normal" in2="BackgroundImageFix" result="effect1_dropShadow_1134_648"/>
<feBlend mode="normal" in="SourceGraphic" in2="effect1_dropShadow_1134_648" result="shape"/>
</filter>
</defs>
</svg>
