<svg width="862" height="594" viewBox="0 0 862 594" fill="none" xmlns="http://www.w3.org/2000/svg">
<path d="M687.784 25.7761C732.842 17.5683 765.826 56.5848 770.605 76.6379C788.278 74.3499 829.46 89.1615 839.862 123.732C849.048 154.259 831.774 190.661 817.611 195.146C826.5 222.936 825 254.43 803.5 275.5C781.999 296.569 732 296.359 711 278.5C696.5 304 643.115 307.682 619.04 291.359C591.115 272.425 588.903 243.014 594.353 222.936C574.646 209.093 552.487 192.988 556.506 154.959C559.932 122.54 587.829 98.1796 621.073 95.444C630.102 65.282 642.726 33.9839 687.784 25.7761Z" fill="#F4D5C0" fill-opacity="0.8"/>
<path d="M31 376.932C26.9908 393.09 31.2 423.832 0 479.432C8 494.432 38.5 601.932 285 592.432C522.047 583.296 569.149 458.673 564.5 448.932C554 426.932 537.3 389.432 526.5 365.432C513.205 335.888 504 310.432 488 286.932C451.078 232.703 404.5 194.931 369.5 181.432C337.661 169.151 233.5 145.932 153.5 201.432C89.5 245.832 47.5 310.432 31 376.932Z" fill="white" fill-opacity="0.3"/>
<path fill-rule="evenodd" clip-rule="evenodd" d="M29.0034 390.459C29.5885 385.06 30.076 380.561 31 376.837C47.5 310.337 89.5 245.737 153.5 201.337C233.5 145.837 337.661 169.056 369.5 181.337C404.5 194.836 451.078 232.608 488 286.837C500.267 304.853 508.54 324.02 517.723 345.296C520.518 351.772 523.398 358.443 526.5 365.337C528.37 369.494 530.418 374.055 532.58 378.871L532.606 378.93C534.13 382.325 535.711 385.847 537.326 389.442C524.078 378.447 507.061 371.836 488.5 371.836C446.25 371.836 412 406.087 412 448.336C412 490.586 446.25 524.836 488.5 524.836C498.682 524.836 508.4 522.847 517.286 519.236C476.779 553.272 405.383 587.697 285 592.337C139.348 597.95 69.1101 562.714 34.3674 529.849C46.2454 537.438 60.359 541.836 75.5 541.836C117.75 541.836 152 507.586 152 465.336C152 423.087 117.75 388.836 75.5 388.836C57.083 388.836 40.186 395.345 26.9834 406.186C27.9428 400.247 28.5081 395.03 29.0034 390.459ZM0.209888 478.962C0.140104 479.087 0.0701414 479.212 0 479.337C0.141469 479.602 0.289974 479.896 0.446585 480.218C0.36428 479.801 0.285371 479.382 0.209888 478.962ZM231 401.353C256.6 381.753 293 387.853 315.5 401.353C299.833 404.353 276 413.853 272 421.353C263.167 414.019 252.5 405.336 231 401.353ZM186 364.336C186 372.897 179.06 379.836 170.5 379.836C161.94 379.836 155 372.897 155 364.336C155 355.776 161.94 348.836 170.5 348.836C179.06 348.836 186 355.776 186 364.336ZM374.5 379.836C383.06 379.836 390 372.897 390 364.336C390 355.776 383.06 348.836 374.5 348.836C365.94 348.836 359 355.776 359 364.336C359 372.897 365.94 379.836 374.5 379.836Z" fill="#6E8DAC" fill-opacity="0.8"/>
<path d="M291.415 137.176C287.301 115.288 295.6 72.8284 361.704 78.0983C358.52 94.2454 340.005 128.667 291.415 137.176Z" fill="#6E8DAC" fill-opacity="0.8"/>
</svg>
