<svg width="565" height="529" viewBox="0 0 565 529" fill="none" xmlns="http://www.w3.org/2000/svg">
<path d="M31 311.932C26.9908 328.09 31.2 358.832 0 414.432C8 429.432 38.5 536.932 285 527.432C522.047 518.296 569.149 393.673 564.5 383.932C554 361.932 537.3 324.432 526.5 300.432C513.205 270.888 504 245.432 488 221.932C451.078 167.703 404.5 129.931 369.5 116.432C337.661 104.151 233.5 80.9319 153.5 136.432C89.5 180.832 47.5 245.432 31 311.932Z" fill="white" fill-opacity="0.3"/>
<path fill-rule="evenodd" clip-rule="evenodd" d="M29.0034 325.459C29.5885 320.06 30.076 315.561 31 311.837C47.5 245.337 89.5 180.737 153.5 136.337C233.5 80.8366 337.661 104.056 369.5 116.337C404.5 129.836 451.078 167.608 488 221.837C500.267 239.853 508.54 259.02 517.723 280.296C520.518 286.772 523.398 293.443 526.5 300.337C528.37 304.494 530.418 309.055 532.58 313.871L532.606 313.93C534.13 317.325 535.711 320.847 537.326 324.442C524.078 313.447 507.061 306.836 488.5 306.836C446.25 306.836 412 341.087 412 383.336C412 425.586 446.25 459.836 488.5 459.836C498.682 459.836 508.4 457.847 517.286 454.236C476.779 488.272 405.383 522.697 285 527.337C139.348 532.95 69.1101 497.714 34.3674 464.849C46.2454 472.438 60.359 476.836 75.5 476.836C117.75 476.836 152 442.586 152 400.336C152 358.087 117.75 323.836 75.5 323.836C57.083 323.836 40.186 330.345 26.9834 341.186C27.9428 335.247 28.5081 330.03 29.0034 325.459ZM0.209888 413.962C0.140104 414.087 0.0701414 414.212 0 414.337C0.141469 414.602 0.289974 414.896 0.446585 415.218C0.36428 414.801 0.285371 414.382 0.209888 413.962ZM231 336.353C256.6 316.753 293 322.853 315.5 336.353C299.833 339.353 276 348.853 272 356.353C263.167 349.019 252.5 340.336 231 336.353ZM186 299.336C186 307.897 179.06 314.836 170.5 314.836C161.94 314.836 155 307.897 155 299.336C155 290.776 161.94 283.836 170.5 283.836C179.06 283.836 186 290.776 186 299.336ZM374.5 314.836C383.06 314.836 390 307.897 390 299.336C390 290.776 383.06 283.836 374.5 283.836C365.94 283.836 359 290.776 359 299.336C359 307.897 365.94 314.836 374.5 314.836Z" fill="#6E8DAC"/>
<path d="M291.415 72.1763C287.301 50.2879 295.6 7.8284 361.704 13.0983C358.52 29.2454 340.005 63.6669 291.415 72.1763Z" fill="#6E8DAC"/>
</svg>
