<svg width="138" height="120" viewBox="0 0 138 120" fill="none" xmlns="http://www.w3.org/2000/svg">
<path d="M109.11 75.663C89.4747 82.84 66.5023 71.1961 58.8612 61.6372C57.7714 59.9997 55.7666 56.9913 54.7495 54.1913M109.11 75.663C133.654 66.6918 125.577 40.2202 119.685 33.0874C111.626 23.3316 104.733 20.9566 98.333 13.4288C87.5375 14.7078 64.0619 19.9852 56.5238 30.8634C51.2258 38.5091 52.3438 47.5688 54.7495 54.1913M109.11 75.663C94.5301 61.0834 66.7947 55.2737 54.7495 54.1913M62.956 39.7782C62.1473 41.0007 60.7668 44.2018 61.7147 47.226" stroke="#E6AC68" stroke-width="3" stroke-linecap="round"/>
<path d="M67.9779 44.2356C67.6394 44.7998 66.9962 46.2781 67.1316 47.6774" stroke="#E6AC68" stroke-width="3" stroke-linecap="round"/>
<path d="M73.5072 47.1696C73.037 47.4893 72.1869 48.5125 72.548 50.0472" stroke="#E6AC68" stroke-width="3" stroke-linecap="round"/>
<path d="M44.5507 104.161C36.9468 114.423 21.3127 116.207 14.2009 113.899C13.0943 113.43 11.0601 112.569 9.59991 111.483M44.5507 104.161C54.0557 91.3324 41.0355 80.5433 35.6317 78.8853C28.2407 76.6177 23.9254 77.7237 18.1298 76.035C13.0524 80.3169 2.85054 90.9017 2.66227 98.9856C2.52995 104.667 6.14619 108.913 9.59991 111.483M44.5507 104.161C32.2112 101.625 16.1087 107.985 9.59991 111.483M8.94082 101.371C8.93925 102.267 9.31119 104.364 10.8115 105.588" stroke="#E6AC68" stroke-width="2" stroke-linecap="round"/>
<path d="M13.0013 101.957C13.0183 102.358 13.1872 103.329 13.7267 103.997" stroke="#E6AC68" stroke-width="2" stroke-linecap="round"/>
<path d="M16.8085 101.594C16.6761 101.916 16.5864 102.723 17.2866 103.385" stroke="#E6AC68" stroke-width="2" stroke-linecap="round"/>
<path d="M52.9999 3C45.6666 9.66667 31.6769 25.4 34.3846 35" stroke="#E6AC68" stroke-width="3" stroke-linecap="round"/>
<path d="M41.1538 3.5L49.6153 12" stroke="#E6AC68" stroke-width="3" stroke-linecap="round"/>
<path d="M32.6923 15L43.9743 21" stroke="#E6AC68" stroke-width="3" stroke-linecap="round"/>
<path d="M31 29.5H37.2051" stroke="#E6AC68" stroke-width="3" stroke-linecap="round"/>
</svg>
