<svg width="159" height="114" viewBox="0 0 159 114" fill="none" xmlns="http://www.w3.org/2000/svg">
<path d="M122.195 71.2639C126.217 71.6426 130.112 71.9477 133.577 72.2665C135.954 72.2453 141.046 72.4583 142.402 73.4802C144.098 74.7576 151.128 73.6371 146.161 67.6933C141.194 61.7495 118.842 44.2967 117.148 42.8081C115.454 41.3195 77.371 2.43932 74.3913 2.4218C68.2044 4.88507 55.0309 11.877 51.8323 20.1387C44.2051 26.2197 28.2269 38.4409 25.3308 38.6773C21.7108 38.9729 6.89017 43.7442 5.28025 46.0583C3.67033 48.3725 -0.392787 51.6228 5.23803 53.2401C10.8688 54.8575 19.5367 58.478 21.5891 59.6734C22.3738 60.1304 31.8827 61.4227 45.514 63.0483M96.9288 42.6892C94.7732 42.7151 90.9948 44.2907 87.0468 49.0739M87.0468 49.0739C83.7827 53.0285 80.1631 59.2569 76.5567 68.5516C73.5311 76.3495 68.6368 90.6426 71.0794 95.1352C73.5219 99.6277 80.1379 80.9078 83.1405 70.9862C86.1947 64.3613 91.171 51.8552 90.1791 50.3597C89.1243 48.7692 87.3829 49.2519 87.0468 49.0739ZM77.8179 53.1387C68.6922 54.6693 49.9315 61.0651 47.895 74.4033C45.8584 87.7415 58.399 91.8569 64.9239 92.2473M99.1402 64.7765C106.469 67.2135 119.148 75.4559 111.237 88.9285M88.8436 96.507C91.7124 97.2984 99.0077 98.1722 105.239 95.336M92.5307 52.4859C93.2379 50.2961 93.8886 48.2669 94.4588 46.477C95.0668 45.6356 96.8782 44.0409 99.26 44.3928C102.237 44.8328 101.732 40.7248 100.88 40.3889C97.1297 38.6769 86.3173 37.4727 73.0689 46.3512C56.5083 57.4494 24.2659 75.0037 23.5043 77.851C19.4552 78.7073 12.8176 81.8016 18.6596 87.3281C23.0561 87.706 32.9103 88.975 37.1551 91.0279C41.3999 93.0807 60.3177 97.3603 69.246 99.2435C70.9815 99.7114 75.0761 99.5524 77.5708 95.1733C78.3972 93.7229 80.0291 88.826 82.0041 83.2645M92.5307 52.4859C103.413 58.5701 125.788 72.0306 128.227 77.1992C130.665 82.3677 147.01 98.2572 154.878 105.556C156.675 107.573 158.61 111.598 151.969 111.559C145.662 110.431 130.853 108.414 122.078 109.377C113.303 110.339 90.5722 104.192 80.3035 100.998C80.3387 96.8169 80.7311 86.8997 82.0041 83.2645M92.5307 52.4859C89.4312 62.0839 85.2509 74.1216 82.0041 83.2645" stroke="#E7E5D6" stroke-width="3"/>
</svg>
