<svg width="95" height="96" viewBox="0 0 95 96" fill="none" xmlns="http://www.w3.org/2000/svg">
<path d="M24.3258 5.04162C14.9786 10.326 15.3016 24.7579 16.6315 31.3134C10.647 33.4151 -0.552553 41.3116 2.52518 56.0839C5.60291 70.8561 17.2014 73.8485 22.6159 73.4983C22.6159 80.7042 30.5602 94 41.694 94C52.8277 94 60.9007 86.6752 62.3234 79.0573C68.4979 82.1099 81.8338 84.6375 89.5851 71.5467C97.3364 58.4558 90.1211 45.4574 85.3715 41.5541C87.2239 34.4983 89.9271 25.1583 79.8959 16.1508C72.2016 9.24171 62.9399 11.6471 55.673 13.5987C48.8337 5.04162 37.4347 -2.3694 24.3258 5.04162Z" stroke="#E7E5D6" stroke-width="3"/>
</svg>
