<svg width="152" height="98" viewBox="0 0 152 98" fill="none" xmlns="http://www.w3.org/2000/svg">
<path d="M126.752 72.7674L111.927 56.2644" stroke="#E7E5D6" stroke-width="3"/>
<path d="M126.752 77.6622C127.839 80.2722 122.804 88.8035 115.424 84.7949" stroke="#E7E5D6" stroke-width="3"/>
<path d="M110.561 82.0451L106.645 57.7101" stroke="#E7E5D6" stroke-width="3"/>
<path d="M108.043 87.3596C108.043 91.2283 95.5641 93.0465 94.8967 86.1009C95.0832 80.46 96.4911 67.0525 100.631 58.5492" stroke="#E7E5D6" stroke-width="3"/>
<path d="M78.8131 92.668C84.6682 94.7901 91.6056 95.9232 99.7916 95.6111C137.944 94.1566 149.161 65.915 150 51.9759C149.767 36.685 140.686 5.29187 106.225 2.04722C88.7895 1.25471 53.1075 10.1309 49.8629 51.9759C49.9562 53.8723 50.2107 56.0003 50.6593 58.2695M78.8131 92.668C61.8439 92.5302 25.2202 91.6392 14.4792 89.1777C3.73825 86.7163 1.70567 75.7515 2.03201 70.5769C3.78279 70.7988 5.7111 71.0375 7.76607 71.2854M78.8131 92.668C68.4495 88.9117 61.4766 82.0568 56.9722 74.6327M56.9722 74.6327C55.5443 76.5477 26.4311 73.5372 7.76607 71.2854M56.9722 74.6327C53.6451 69.1491 51.6647 63.3549 50.6593 58.2695M7.76607 71.2854C6.88031 68.7649 6.5633 62.9407 12.3813 59.8079C18.1994 56.6751 40.3242 57.477 50.6593 58.2695M106.225 36.8715L109.721 16.4525C110.98 14.4945 114.812 11.1659 120.071 13.5155C125.329 15.8651 126.085 20.5549 125.805 22.6061M123.707 27.9207L111.4 39.6686M130.108 25.6357C133.185 24.3298 139.651 31.0901 136.821 36.8715M133.777 38.6896L113.917 44.2839M139.651 42.6056C143.535 42.6056 146.891 51.9759 139.651 54.9129M135.874 56.7311L113.917 50.4375M136.993 61.7659C138.159 65.0292 138.532 71.9754 130.7 73.6537M104.687 12.6763C103.708 8.7131 92.9066 6.19569 91.4002 15.0539M91.4002 19.6692L99.7916 36.8715M86.2255 17.7112C83.9558 13.5155 74.3377 15.6133 76.9949 23.8648L95.0364 41.0672M71.2608 26.5221C67.4528 25.2161 60.4599 31.6495 65.6666 37.8505M63.0093 55.7521C60.9115 52.6752 58.5059 45.7384 65.6666 42.6056C65.9929 42.2457 71.4566 42.4411 90.7009 46.102M66.7854 62.8848C63.0093 64.9353 63.8165 73.8862 71.2608 72.8146M70.2818 58.9688C75.643 56.6378 87.2324 51.9759 90.7009 51.9759M89.582 86.3806C86.6131 90.8088 74.4456 87.5921 76.7152 78.9682M103.708 42.6056C105.665 42.559 109.609 43.6405 109.721 48.3397C109.833 53.0389 105.759 53.6542 103.708 53.3745C102.076 53.6076 98.6447 52.927 97.9734 48.3397C97.3021 43.7524 101.516 42.6056 103.708 42.6056Z" stroke="#E7E5D6" stroke-width="3"/>
<path d="M77.8342 74.4929C82.636 68.5723 92.7709 56.5913 94.8967 56.0319" stroke="#E7E5D6" stroke-width="3"/>
</svg>
