<svg width="138" height="157" viewBox="0 0 138 157" fill="none" xmlns="http://www.w3.org/2000/svg">
<path d="M29.691 54.4945C22.4294 54.0235 7.11694 50.6321 3.95974 40.8348C0.013227 28.5881 2.38113 18.6966 7.90624 10.6892C12.3263 4.28321 23.7847 0.339451 33.7953 2.68173C47.3082 7.83157 53.3174 16.1844 54.7908 20.2667C56.0537 26.6726 55.4222 29.6872 55.4222 31.5713M29.691 54.4945C30.375 47.2721 36.9525 34.5544 55.4222 31.5713M29.691 54.4945C29.0069 60.4085 28.047 67.9618 35.3085 76.0175C39.4129 80.5708 45.4116 84.1691 54.7908 84.1691M55.4222 31.5713H62.7762C72.0246 34.4103 79.6696 39.5159 81.3113 51.1973C81.3113 56.8496 81.3113 59.6235 81.3113 60.3038M54.7908 84.1691C56.5272 76.214 64.2624 60.3038 81.3113 60.3038M54.7908 84.1691C54.7381 90.5541 56.9354 101.767 65.6177 108.047C72.0901 112.729 84.0874 115.27 92.5194 110.39M81.3113 60.3038C82.048 60.0945 84.3106 59.9898 87.7836 61.0889C102.083 63.6139 109.661 74.7614 111.239 82.4549C111.239 99.5374 103.359 104.057 99.6231 105.836L98.6759 106.542M92.5194 110.39L88.7307 105.836C88.3624 103.167 88.9202 98.4883 94.098 101.126L98.6759 106.542M92.5194 110.39L131.511 154.823C136.226 155.828 136.317 152.311 135.773 150.427L98.6759 106.542" stroke="#EAE8DB" stroke-width="3"/>
</svg>
