<svg width="92" height="90" viewBox="0 0 92 90" fill="none" xmlns="http://www.w3.org/2000/svg">
<path d="M10.332 69.9374C4.06131 63.1476 0.765542 46.5813 2.46657 37.0304C6.59024 13.877 30.8463 -3.02235 53.6053 2.8881C79.2236 5.88925 93.6216 29.3775 89.4979 52.5309C87.4286 64.1494 77.3696 77.5759 66.6927 82.2439M38.5157 86.7036C27.0511 84.6618 16.4254 80.4244 9.89603 72.0592L16.2615 41.0808C17.5345 35.9885 18.0692 27.8258 23.8968 28.8637C29.7245 29.9017 57.2525 34.8045 70.288 37.1261C71.4389 36.9566 74.8972 41.6346 73.9747 45.3244C72.1731 52.5309 68.0336 72.0592 66.3362 83.9414C57.9938 88.1314 48.5545 88.4916 38.5157 86.7036Z" stroke="#E7E5D6" stroke-width="3"/>
</svg>
