<svg width="95" height="85" viewBox="0 0 95 85" fill="none" xmlns="http://www.w3.org/2000/svg">
<path d="M2.0033 58.7436C2.04324 62.399 2.43843 66.4559 2.76111 68.8917C5.39358 73.2273 11.8934 81.584 16.8328 80.3262C21.7722 79.0684 27.3148 74.5613 29.4686 72.465C30.9523 73.6561 37.8255 77.2103 53.4479 81.8984C69.0703 86.5866 73.4546 75.1807 73.6939 68.8917C86.6743 70.7212 91.0681 68.1294 91.6425 66.6048V60.7447M2.0033 58.7436C1.97214 55.8926 2.15709 53.2858 2.76111 51.8829C4.10128 51.1683 7.557 50.1678 10.6585 51.8829V47.881C8.64827 39.4957 6.20726 21.0671 12.5252 14.4351C14.5833 13.911 20.1641 13.6347 26.0225 16.722C26.7883 13.0534 30.1578 4.97297 37.5096 2C40.0463 2.04773 46.1823 4.60157 50.4325 14.4351C59.9572 8.90838 81.1892 -0.487101 89.9194 6.145C93.2698 12.5293 96.7255 28.042 83.7451 39.0191C85.9468 40.4485 90.6086 44.2221 91.6425 47.881V60.7447M2.0033 58.7436C3.35675 62.031 7.64314 69.3777 13.961 72.465C15.1576 73.132 19.2451 72.8938 26.0225 66.6048C34.6378 70.9404 53.6489 78.8969 60.7709 76.0383C62.3504 75.8001 66.7442 72.7509 71.6837 62.4598C75.0819 63.2698 83.8312 64.0607 91.6425 60.7447M29.4686 51.8829L35.6931 47.8569M64.6046 29.1569L41.9176 43.8309M41.9176 43.8309V29.1569M41.9176 43.8309L35.6931 47.8569M35.6931 47.8569L60.7709 47.881" stroke="#EAE8DB" stroke-width="3"/>
</svg>
