<svg width="97" height="83" viewBox="0 0 97 83" fill="none" xmlns="http://www.w3.org/2000/svg">
<path d="M95.1654 34.7945C88.4283 21.0008 79.4937 18.6232 75.8685 19.1586C77.3706 10.7942 68.1913 5.76247 63.4139 4.29218L58.412 7.52739L55.5245 2.87541C45.7719 -0.345608 35.6905 5.13104 31.869 8.27199C26.3511 6.82185 14.4868 5.42613 11.1723 11.4444M95.1654 34.7945L89.1748 39.0003L93.8013 41.0941M95.1654 34.7945L93.8013 41.0941M95.2595 42.0449C94.7325 46.275 90.5647 54.842 78.1094 55.2691C78.7894 59.2567 78.202 68.0993 70.4124 71.5687L67.2995 66.8762L64.1593 72.0532C60.3582 71.4089 52.275 69.6894 50.3507 67.966M95.2595 42.0449L93.8013 41.0941M95.2595 42.0449C93.4378 52.189 87.6408 62.8746 84.97 66.9494C78.7036 73.5551 61.0356 85.431 40.4951 80.089C14.8195 73.4115 17.5531 71.1468 6.84616 60.1535C-1.71942 51.3589 3.24893 29.0045 6.80381 18.9267M11.1723 11.4444L13.3822 17.9265L9.36971 18.5366M11.1723 11.4444L9.36971 18.5366M6.80381 18.9267C6.83897 22.1861 8.20553 29.6497 13.3905 33.4283C10.9015 36.9233 6.15667 45.7235 7.0902 52.9639L13.0636 54.0366L11.8052 61.0441C21.9834 66.7756 43.1543 70.853 46.412 41.3101C45.3781 46.6356 43.6147 58.0532 44.8325 61.1194M6.80381 18.9267L9.36971 18.5366M61.2064 39.2594C64.7897 41.5486 72.4306 46.8551 74.3274 49.7676M71.7825 21.1805C68.3696 22.909 61.4002 26.6483 60.8253 27.7769M35.4069 11.8926C38.5803 15.6008 44.7409 23.5349 43.9967 25.6057M22.3228 32.2767C25.4619 31.4244 32.4242 30.1869 35.1599 32.056M48.95 34.3028L49.4281 24.5144C50.178 23.5774 51.9717 22.3993 53.1473 25.1823L48.95 34.3028ZM48.95 34.3028L59.7584 33.7178C61.2188 34.4393 63.1276 36.2058 59.0793 37.4996L48.95 34.3028ZM48.95 34.3028L55.0048 42.0495C55.1208 43.5629 54.6304 46.2075 51.7405 44.6781L48.95 34.3028ZM48.95 34.3028L41.3801 40.1768C40.0804 40.2879 37.8037 39.8791 39.0946 37.3553C40.3855 34.8315 46.2027 34.2687 48.95 34.3028ZM48.95 34.3028L38.8136 31.7936C37.9367 31.062 36.8169 29.4372 39.3529 28.7904C41.889 28.1436 46.8077 32.1958 48.95 34.3028Z" stroke="#EAE8DB" stroke-width="3"/>
</svg>
