<svg width="70" height="68" viewBox="0 0 70 68" fill="none" xmlns="http://www.w3.org/2000/svg">
<path d="M18.1923 4.11591C11.4131 7.79199 11.6473 17.8316 12.6118 22.3919C8.27144 23.854 0.148698 29.3472 2.3809 39.6235C4.6131 49.8999 13.0252 51.9816 16.9522 51.7379C16.9522 56.7508 22.714 66 30.789 66C38.864 66 44.7192 60.9045 45.7511 55.6051C50.2292 57.7286 59.9014 59.4869 65.5233 50.3803C71.1451 41.2736 65.912 32.2312 62.4673 29.5159C63.8107 24.6075 65.7713 18.1101 58.496 11.844C52.9155 7.03771 46.1982 8.71101 40.9277 10.0687C35.9673 4.11591 27.6999 -1.03959 18.1923 4.11591Z" stroke="#EAE8DB" stroke-width="3"/>
</svg>
