<svg width="85" height="61" viewBox="0 0 85 61" fill="none" xmlns="http://www.w3.org/2000/svg">
<circle cx="69" cy="16" r="14" stroke="#444444" stroke-width="4"/>
<line x1="63.0409" y1="22.5858" x2="75.041" y2="10.5858" stroke="#444444" stroke-width="4"/>
<line y1="-2" x2="16.9706" y2="-2" transform="matrix(-0.70711 -0.707104 -0.707104 0.70711 74 24)" stroke="#444444" stroke-width="4"/>
<path d="M55.9294 39.1912L60.9357 17.66C61.2972 16.1054 60.0883 14.625 58.4573 14.625H16.8606L15.8899 9.98646C15.648 8.8303 14.6072 8 13.3998 8H2.54167C1.13793 8 0 9.11228 0 10.4844V12.1406C0 13.5127 1.13793 14.625 2.54167 14.625H9.94247L17.3819 50.1759C15.6021 51.1764 14.4028 53.0523 14.4028 55.2031C14.4028 58.4047 17.058 61 20.3333 61C23.6087 61 26.2639 58.4047 26.2639 55.2031C26.2639 53.5806 25.5811 52.1147 24.4822 51.0625H46.6844C45.5855 52.1147 44.9028 53.5806 44.9028 55.2031C44.9028 58.4047 47.558 61 50.8333 61C54.1087 61 56.7639 58.4047 56.7639 55.2031C56.7639 52.908 55.399 50.9246 53.4196 49.9854L54.0039 47.4725C54.3653 45.9179 53.1564 44.4375 51.5254 44.4375H23.0992L22.4061 41.125H53.4509C54.6377 41.125 55.6664 40.3223 55.9294 39.1912Z" fill="#444444"/>
</svg>
