<svg width="63" height="86" viewBox="0 0 63 86" fill="none" xmlns="http://www.w3.org/2000/svg">
<path d="M32.9084 17.3718C33.3991 11.7068 38.1192 1.55915 53.0748 6.28835C51.2733 10.146 44.718 17.7634 32.9084 17.3718Z" fill="#6E8DAC" fill-opacity="0.8"/>
<circle cx="31.5" cy="54.5" r="31.5" fill="#6E8DAC" fill-opacity="0.8"/>
<path d="M17.1716 57.3137C15.6095 58.8758 15.6095 61.4085 17.1716 62.9706C18.7337 64.5327 21.2663 64.5327 22.8284 62.9706L17.1716 57.3137ZM22.8284 62.9706L36.9706 48.8284L31.3137 43.1716L17.1716 57.3137L22.8284 62.9706Z" fill="white"/>
<path d="M45.9705 57.3137C47.5326 58.8758 47.5326 61.4085 45.9705 62.9706C44.4084 64.5327 41.8758 64.5327 40.3137 62.9706L45.9705 57.3137ZM40.3137 62.9706L26.1715 48.8284L31.8284 43.1716L45.9705 57.3137L40.3137 62.9706Z" fill="white"/>
</svg>
