<svg width="66" height="84" viewBox="0 0 66 84" fill="none" xmlns="http://www.w3.org/2000/svg">
<path d="M33.9085 17.3718C34.3992 11.7068 39.1193 1.55915 54.0749 6.28835C52.2734 10.146 45.7181 17.7634 33.9085 17.3718Z" fill="#6E8DAC" fill-opacity="0.8"/>
<path fill-rule="evenodd" clip-rule="evenodd" d="M66 53.0594C66 69.6279 51.2254 83.0594 33 83.0594C14.7746 83.0594 0 69.6279 0 53.0594C0 36.4908 14.7746 23.0594 33 23.0594C51.2254 23.0594 66 36.4908 66 53.0594ZM18.1716 60.9706C16.6095 59.4084 16.6095 56.8758 18.1716 55.3137L32.3137 41.1716L32.571 41.4289L32.8284 41.1716L46.9705 55.3137C48.5326 56.8758 48.5326 59.4085 46.9705 60.9706C45.4084 62.5327 42.8758 62.5327 41.3137 60.9706L32.571 52.228L23.8284 60.9706C22.2663 62.5327 19.7337 62.5327 18.1716 60.9706Z" fill="#6E8DAC" fill-opacity="0.8"/>
</svg>
