<svg width="170" height="96" viewBox="0 0 170 96" fill="none" xmlns="http://www.w3.org/2000/svg">
<path d="M85.0029 20.0333C85.6399 20.3504 86.3877 20.7647 87.2088 21.27C88.9398 22.3352 90.9968 23.8048 93.0284 25.621C96.5124 28.7356 99.9219 32.8695 101.486 37.7313M34.9667 58.364C44.9886 56.4391 65.9713 54.2837 69.7265 61.061C73.4818 67.8382 55.6008 77.1936 46.1908 81.0241C44.2313 82.2634 38.3235 82.9093 30.3683 75.5789M118.217 51.6885C121.064 53.5126 125.708 59.0539 125.206 68.154M124.263 73.9201C124.81 71.8619 125.107 69.9395 125.206 68.154M125.206 68.154C128.634 71.0834 137.035 76.522 143.214 74.8414M131.721 62.5677C132.88 63.3827 136.107 64.4263 139.744 62.0812M90.0828 38.7132C91.6513 41.2063 93.0603 46.9734 86.1482 50.0964M83.7847 61.0524C85.8018 63.9887 87.6794 70.6172 79.0531 73.6413M100.126 55.4783C103.247 59.0284 106.78 66.7126 95.9421 69.0483M3.21235 34.6472C2.36719 36.4837 1.86176 38.2095 1.63954 39.7371C15.0066 92.6127 64.7761 96.9731 87.99 92.5438C114.246 96.0275 117.592 87.1309 115.982 82.2471C134.269 87.4461 156.105 81.2252 164.737 77.4649C173.451 77.2427 162.155 63.1446 155.418 56.1234C157.029 46.8791 157.738 28.2542 147.691 27.7088C137.644 27.1634 120.718 36.4099 113.51 41.1012C110.071 33.7955 101.635 16.6686 95.4121 6.6068C89.1888 -3.45502 79.1305 3.78237 74.8793 8.6588C27.6456 6.8572 8.57927 22.9848 3.21235 34.6472ZM3.21235 34.6472C6.70228 33.6981 14.6067 33.4416 18.3047 40.0084M9.0092 42.5363C10.6957 42.8782 14.3523 44.1913 15.4868 46.7083" stroke="#ECE9DA" stroke-width="3"/>
</svg>
