<svg width="184" height="65" viewBox="0 0 184 65" fill="none" xmlns="http://www.w3.org/2000/svg">
<path d="M45.1728 17.7734C30.2644 19.7112 16.9789 21.5455 7.29077 22.9435C-0.838559 24.0957 2.02192 32.4799 4.46833 36.5279C14.3885 48.7398 28.758 55.5738 41.7687 59.1487M45.1728 17.7734C81.785 13.0147 128.185 7.63204 155.133 6.55496C163.323 2.84713 179.979 -2.07919 181.083 7.87818C182.463 20.3249 187.091 27.5396 162.404 28.5962C145.526 38.5309 102.708 59.2371 66.4545 62.5838C60.682 62.693 51.6144 61.854 41.7687 59.1487M45.1728 17.7734C48.2582 19.7911 51.7158 23.3246 53.5784 28.0601M41.7687 59.1487C51.3142 50.3299 54.7571 42.3976 54.9375 35.8052M53.5784 28.0601C57.9631 24.8861 65.4733 20.6937 68.0343 24.2737L69.7385 30.6366C70.1248 34.1217 67.6987 37.2129 54.9375 35.8052M53.5784 28.0601C54.4863 30.3683 55.0153 32.9622 54.9375 35.8052" stroke="#ECE9DA" stroke-width="3"/>
</svg>
