<svg width="108" height="105" viewBox="0 0 108 105" fill="none" xmlns="http://www.w3.org/2000/svg">
<path d="M12.0137 82.5001C4.62531 74.5001 0.742106 54.981 2.74632 43.7278C7.60499 16.4476 36.1844 -3.46393 63 3.5C93.1844 7.03607 110.149 34.7108 105.29 61.9911C102.852 75.6805 91 91.5001 78.42 97.0001M45.2208 102.255C31.7128 99.8489 19.1931 94.8563 11.5 85.0001L19 48.5001C20.5 42.5001 21.1299 32.8826 27.9963 34.1055C34.8627 35.3284 67.2972 41.1051 82.6562 43.8406C84.0123 43.6408 88.0869 49.1526 87 53.5001C84.8773 61.9911 80 85.0001 78 99.0001C68.1707 103.937 57.0489 104.361 45.2208 102.255Z" stroke="#ECE9DA" stroke-width="3"/>
</svg>
