<svg width="122" height="78" viewBox="0 0 122 78" fill="none" xmlns="http://www.w3.org/2000/svg">
<path d="M89.1536 44.8961C100.963 47.5803 105.902 45.1747 113.338 39.4698C114.154 38.8441 114.832 38.1901 115.391 37.5208M89.1536 44.8961C77.3446 42.2118 66.233 37.6413 53.6666 40.4608C43.8175 42.6707 40.62 51.0036 32.9627 56.0152M89.1536 44.8961C65.0012 60.233 41.6295 58.6992 32.9627 56.0152M8.0929 41.018C5.61185 45.1439 3.7187 48.9294 2.45232 51.9517C2.38407 63.1968 9.25651 62.757 12.9053 62.4668M8.0929 41.018C16.6275 26.8252 32.1186 8.60453 52.9841 3.56556C74.6517 -1.66712 96.1265 9.60406 108.875 19.5787M8.0929 41.018C8.24161 44.8256 16.4639 48.3582 48.1633 32.0274C53.4721 29.9745 69.7765 26.3515 92.5237 28.2826C95.6547 28.5481 103.308 27.1789 108.875 19.5787M108.875 19.5787C111.972 22.0018 114.554 24.3483 116.499 26.3632C117.729 28.4922 118.912 33.3079 115.391 37.5208M12.9053 62.4668C15.6993 62.2445 19.3064 60.5676 25.3729 59.2065C28.3979 58.5277 30.85 57.3979 32.9627 56.0152M12.9053 62.4668C10.9484 64.2892 8.61379 68.6465 14.9312 71.4961C18.2861 71.4641 27.1728 72.4888 31.2206 72.8171C40.2028 73.5455 48.7725 78.0306 64.7769 74.4397C77.5805 71.567 93.1261 62.601 99.2984 58.4772C104.495 56.1099 115.527 51.0014 118.08 49.5059C120.634 48.0104 121.286 40.1143 115.391 37.5208" stroke="#ECE9DA" stroke-width="3"/>
</svg>
