<svg width="63" height="62" viewBox="0 0 63 62" fill="none" xmlns="http://www.w3.org/2000/svg">
<path d="M39.4213 3.02517C30.5108 -0.518019 22.0605 5.95675 20.2198 9.79522C16.6849 8.59306 8.48557 8.22609 3.96757 16.3754C-0.550437 24.5248 3.7584 29.557 6.47757 31.0544C2.27332 37.6979 2.13527 47.4291 8.10907 51.4279C16.2666 56.8883 22.3533 54.6969 25.6791 53.5791C28.6702 56.9747 36.5348 61.6778 42.1823 59.4001C48.7331 56.758 49.4613 50.6897 49.1476 48.4541C53.7911 46.4927 58.6856 44.1516 60.5053 36.4958C63.0637 25.7327 55.1088 21.8801 50.1516 19.8554C49.5868 13.4017 48.3318 6.56836 39.4213 3.02517Z" stroke="#EFEDE1" stroke-width="3"/>
</svg>
