<svg width="110" height="118" viewBox="0 0 110 118" fill="none" xmlns="http://www.w3.org/2000/svg">
<path d="M15.8646 7.93037C18.9492 6.04174 26.4873 2.19013 31.9629 1.89264C33.0392 1.83416 35.6493 2.46648 39.2837 3.59453M15.8646 7.93037C14.0974 8.89742 10.4033 20.4483 7.34299 33.5795M15.8646 7.93037C18.2221 9.22649 20.8374 10.6595 23.6335 12.1861M107.585 34.4193C102.557 39.6063 90.7625 44.8068 86.8039 44.7807M107.585 34.4193C107.653 30.2745 66.1125 12.7171 44.3581 5.26057C42.5115 4.62766 40.8076 4.06752 39.2837 3.59453M107.585 34.4193C107.502 39.584 108.221 50.0304 96.857 100.918M71.1598 115.833C87.2073 115.534 94.1981 109.225 95.6875 106.109C96.0909 104.333 96.4806 102.603 96.857 100.918M71.1598 115.833C69.7511 115.523 7.04173 81.8939 3.19711 71.4652C2.54284 69.6905 2.36805 66.74 2.54723 63.0551M71.1598 115.833C71.9447 113.233 72.6954 110.672 73.4129 108.156M86.8039 44.7807C86.2767 44.7772 84.5782 44.094 82.0098 42.9008M86.8039 44.7807C86.4478 48.4769 85.5536 54.9442 83.9728 63.5097M57.896 30.6218C60.1456 28.6422 66.5053 25.412 73.9473 28.3282C83.2498 31.9735 82.8041 38.5875 82.0098 42.9008M57.896 30.6218C61.0496 32.2873 64.0971 33.8845 66.9563 35.3671M57.896 30.6218C47.6509 25.2111 36.2861 19.0799 26.6177 13.8135C25.6032 13.2609 24.6074 12.7179 23.6335 12.1861M82.0098 42.9008C79.8829 41.9127 77.1595 40.5748 74.0109 38.9837M83.9728 63.5097C84.6856 60.316 87.406 53.8379 92.585 53.4751C97.7641 53.1123 97.7034 57.2951 97.0256 59.4318L92.9025 78.1581C93.014 80.5939 91.8317 86.0579 86.2107 88.4277C80.5898 90.7975 79.2674 87.503 79.3089 85.5596M83.9728 63.5097C83.4584 66.297 82.8713 69.3066 82.2064 72.5151M79.3089 85.5596C78.8865 87.3443 78.4444 89.169 77.9817 91.0312M79.3089 85.5596C80.4053 80.9258 81.3678 76.5622 82.2064 72.5151M66.9563 35.3671C60.4697 32.1129 46.4095 28.3526 42.0615 39.3448C36.6265 53.0851 45.5602 82.7654 45.6655 86.1705C45.7708 89.5757 59.4281 103.104 77.9817 91.0312M66.9563 35.3671C69.4722 36.6718 71.8424 37.8878 74.0109 38.9837M77.9817 91.0312C76.6366 96.4451 75.1184 102.175 73.4129 108.156M74.0109 38.9837C78.0766 41.0915 85.4077 50.7487 82.2064 72.5151M7.34299 33.5795C9.31857 32.8417 13.8525 30.3433 16.1837 26.2515C19.0977 21.1367 23.9867 18.702 26.9221 26.5525C29.8575 34.4031 35.3869 43.8876 32.2133 63.9503C32.242 65.585 30.3731 68.9187 22.6676 69.1761C13.0358 69.498 10.1036 71.3888 2.54723 63.0551M7.34299 33.5795C4.9421 43.8813 2.93133 55.1557 2.54723 63.0551M39.2837 3.59453L23.6335 12.1861M96.857 100.918C90.8532 102.195 77.7591 105.431 73.4129 108.156" stroke="#ECE9DA" stroke-width="3"/>
</svg>
